<?xml version="1.0" encoding="utf-8" standalone="no"?>
<!DOCTYPE svg PUBLIC "-//W3C//DTD SVG 1.1//EN"
  "http://www.w3.org/Graphics/SVG/1.1/DTD/svg11.dtd">
<!-- Created with matplotlib (http://matplotlib.org/) -->
<svg height="345.6pt" version="1.1" viewBox="0 0 460.8 345.6" width="460.8pt" xmlns="http://www.w3.org/2000/svg" xmlns:xlink="http://www.w3.org/1999/xlink">
 <defs>
  <style type="text/css">
*{stroke-linecap:butt;stroke-linejoin:round;}
  </style>
 </defs>
 <g id="figure_1">
  <g id="patch_1">
   <path d="M 0 345.6 
L 460.8 345.6 
L 460.8 0 
L 0 0 
z
" style="fill:#ffffff;"/>
  </g>
  <g id="axes_1">
   <g id="patch_2">
    <path d="M 57.6 307.584 
L 414.72 307.584 
L 414.72 41.472 
L 57.6 41.472 
z
" style="fill:#ffffff;"/>
   </g>
   <g id="matplotlib.axis_1">
    <g id="xtick_1">
     <g id="line2d_1">
      <defs>
       <path d="M 0 0 
L 0 3.5 
" id="mf308cbf319" style="stroke:#000000;stroke-width:0.8;"/>
      </defs>
      <g>
       <use style="stroke:#000000;stroke-width:0.8;" x="57.6" xlink:href="#mf308cbf319" y="307.584"/>
      </g>
     </g>
     <g id="text_1">
      <!-- 38.0 -->
      <defs>
       <path d="M 40.578125 39.3125 
Q 47.65625 37.796875 51.625 33 
Q 55.609375 28.21875 55.609375 21.1875 
Q 55.609375 10.40625 48.1875 4.484375 
Q 40.765625 -1.421875 27.09375 -1.421875 
Q 22.515625 -1.421875 17.65625 -0.515625 
Q 12.796875 0.390625 7.625 2.203125 
L 7.625 11.71875 
Q 11.71875 9.328125 16.59375 8.109375 
Q 21.484375 6.890625 26.8125 6.890625 
Q 36.078125 6.890625 40.9375 10.546875 
Q 45.796875 14.203125 45.796875 21.1875 
Q 45.796875 27.640625 41.28125 31.265625 
Q 36.765625 34.90625 28.71875 34.90625 
L 20.21875 34.90625 
L 20.21875 43.015625 
L 29.109375 43.015625 
Q 36.375 43.015625 40.234375 45.921875 
Q 44.09375 48.828125 44.09375 54.296875 
Q 44.09375 59.90625 40.109375 62.90625 
Q 36.140625 65.921875 28.71875 65.921875 
Q 24.65625 65.921875 20.015625 65.03125 
Q 15.375 64.15625 9.8125 62.3125 
L 9.8125 71.09375 
Q 15.4375 72.65625 20.34375 73.4375 
Q 25.25 74.21875 29.59375 74.21875 
Q 40.828125 74.21875 47.359375 69.109375 
Q 53.90625 64.015625 53.90625 55.328125 
Q 53.90625 49.265625 50.4375 45.09375 
Q 46.96875 40.921875 40.578125 39.3125 
z
" id="DejaVuSans-33"/>
       <path d="M 31.78125 34.625 
Q 24.75 34.625 20.71875 30.859375 
Q 16.703125 27.09375 16.703125 20.515625 
Q 16.703125 13.921875 20.71875 10.15625 
Q 24.75 6.390625 31.78125 6.390625 
Q 38.8125 6.390625 42.859375 10.171875 
Q 46.921875 13.96875 46.921875 20.515625 
Q 46.921875 27.09375 42.890625 30.859375 
Q 38.875 34.625 31.78125 34.625 
z
M 21.921875 38.8125 
Q 15.578125 40.375 12.03125 44.71875 
Q 8.5 49.078125 8.5 55.328125 
Q 8.5 64.0625 14.71875 69.140625 
Q 20.953125 74.21875 31.78125 74.21875 
Q 42.671875 74.21875 48.875 69.140625 
Q 55.078125 64.0625 55.078125 55.328125 
Q 55.078125 49.078125 51.53125 44.71875 
Q 48 40.375 41.703125 38.8125 
Q 48.828125 37.15625 52.796875 32.3125 
Q 56.78125 27.484375 56.78125 20.515625 
Q 56.78125 9.90625 50.3125 4.234375 
Q 43.84375 -1.421875 31.78125 -1.421875 
Q 19.734375 -1.421875 13.25 4.234375 
Q 6.78125 9.90625 6.78125 20.515625 
Q 6.78125 27.484375 10.78125 32.3125 
Q 14.796875 37.15625 21.921875 38.8125 
z
M 18.3125 54.390625 
Q 18.3125 48.734375 21.84375 45.5625 
Q 25.390625 42.390625 31.78125 42.390625 
Q 38.140625 42.390625 41.71875 45.5625 
Q 45.3125 48.734375 45.3125 54.390625 
Q 45.3125 60.0625 41.71875 63.234375 
Q 38.140625 66.40625 31.78125 66.40625 
Q 25.390625 66.40625 21.84375 63.234375 
Q 18.3125 60.0625 18.3125 54.390625 
z
" id="DejaVuSans-38"/>
       <path d="M 10.6875 12.40625 
L 21 12.40625 
L 21 0 
L 10.6875 0 
z
" id="DejaVuSans-2e"/>
       <path d="M 31.78125 66.40625 
Q 24.171875 66.40625 20.328125 58.90625 
Q 16.5 51.421875 16.5 36.375 
Q 16.5 21.390625 20.328125 13.890625 
Q 24.171875 6.390625 31.78125 6.390625 
Q 39.453125 6.390625 43.28125 13.890625 
Q 47.125 21.390625 47.125 36.375 
Q 47.125 51.421875 43.28125 58.90625 
Q 39.453125 66.40625 31.78125 66.40625 
z
M 31.78125 74.21875 
Q 44.046875 74.21875 50.515625 64.515625 
Q 56.984375 54.828125 56.984375 36.375 
Q 56.984375 17.96875 50.515625 8.265625 
Q 44.046875 -1.421875 31.78125 -1.421875 
Q 19.53125 -1.421875 13.0625 8.265625 
Q 6.59375 17.96875 6.59375 36.375 
Q 6.59375 54.828125 13.0625 64.515625 
Q 19.53125 74.21875 31.78125 74.21875 
z
" id="DejaVuSans-30"/>
      </defs>
      <g transform="translate(46.467187 322.182437)scale(0.1 -0.1)">
       <use xlink:href="#DejaVuSans-33"/>
       <use x="63.623047" xlink:href="#DejaVuSans-38"/>
       <use x="127.246094" xlink:href="#DejaVuSans-2e"/>
       <use x="159.033203" xlink:href="#DejaVuSans-30"/>
      </g>
     </g>
    </g>
    <g id="xtick_2">
     <g id="line2d_2">
      <g>
       <use style="stroke:#000000;stroke-width:0.8;" x="102.24" xlink:href="#mf308cbf319" y="307.584"/>
      </g>
     </g>
     <g id="text_2">
      <!-- 38.5 -->
      <defs>
       <path d="M 10.796875 72.90625 
L 49.515625 72.90625 
L 49.515625 64.59375 
L 19.828125 64.59375 
L 19.828125 46.734375 
Q 21.96875 47.46875 24.109375 47.828125 
Q 26.265625 48.1875 28.421875 48.1875 
Q 40.625 48.1875 47.75 41.5 
Q 54.890625 34.8125 54.890625 23.390625 
Q 54.890625 11.625 47.5625 5.09375 
Q 40.234375 -1.421875 26.90625 -1.421875 
Q 22.3125 -1.421875 17.546875 -0.640625 
Q 12.796875 0.140625 7.71875 1.703125 
L 7.71875 11.625 
Q 12.109375 9.234375 16.796875 8.0625 
Q 21.484375 6.890625 26.703125 6.890625 
Q 35.15625 6.890625 40.078125 11.328125 
Q 45.015625 15.765625 45.015625 23.390625 
Q 45.015625 31 40.078125 35.4375 
Q 35.15625 39.890625 26.703125 39.890625 
Q 22.75 39.890625 18.8125 39.015625 
Q 14.890625 38.140625 10.796875 36.28125 
z
" id="DejaVuSans-35"/>
      </defs>
      <g transform="translate(91.107188 322.182437)scale(0.1 -0.1)">
       <use xlink:href="#DejaVuSans-33"/>
       <use x="63.623047" xlink:href="#DejaVuSans-38"/>
       <use x="127.246094" xlink:href="#DejaVuSans-2e"/>
       <use x="159.033203" xlink:href="#DejaVuSans-35"/>
      </g>
     </g>
    </g>
    <g id="xtick_3">
     <g id="line2d_3">
      <g>
       <use style="stroke:#000000;stroke-width:0.8;" x="146.88" xlink:href="#mf308cbf319" y="307.584"/>
      </g>
     </g>
     <g id="text_3">
      <!-- 39.0 -->
      <defs>
       <path d="M 10.984375 1.515625 
L 10.984375 10.5 
Q 14.703125 8.734375 18.5 7.8125 
Q 22.3125 6.890625 25.984375 6.890625 
Q 35.75 6.890625 40.890625 13.453125 
Q 46.046875 20.015625 46.78125 33.40625 
Q 43.953125 29.203125 39.59375 26.953125 
Q 35.25 24.703125 29.984375 24.703125 
Q 19.046875 24.703125 12.671875 31.3125 
Q 6.296875 37.9375 6.296875 49.421875 
Q 6.296875 60.640625 12.9375 67.421875 
Q 19.578125 74.21875 30.609375 74.21875 
Q 43.265625 74.21875 49.921875 64.515625 
Q 56.59375 54.828125 56.59375 36.375 
Q 56.59375 19.140625 48.40625 8.859375 
Q 40.234375 -1.421875 26.421875 -1.421875 
Q 22.703125 -1.421875 18.890625 -0.6875 
Q 15.09375 0.046875 10.984375 1.515625 
z
M 30.609375 32.421875 
Q 37.25 32.421875 41.125 36.953125 
Q 45.015625 41.5 45.015625 49.421875 
Q 45.015625 57.28125 41.125 61.84375 
Q 37.25 66.40625 30.609375 66.40625 
Q 23.96875 66.40625 20.09375 61.84375 
Q 16.21875 57.28125 16.21875 49.421875 
Q 16.21875 41.5 20.09375 36.953125 
Q 23.96875 32.421875 30.609375 32.421875 
z
" id="DejaVuSans-39"/>
      </defs>
      <g transform="translate(135.747188 322.182437)scale(0.1 -0.1)">
       <use xlink:href="#DejaVuSans-33"/>
       <use x="63.623047" xlink:href="#DejaVuSans-39"/>
       <use x="127.246094" xlink:href="#DejaVuSans-2e"/>
       <use x="159.033203" xlink:href="#DejaVuSans-30"/>
      </g>
     </g>
    </g>
    <g id="xtick_4">
     <g id="line2d_4">
      <g>
       <use style="stroke:#000000;stroke-width:0.8;" x="191.52" xlink:href="#mf308cbf319" y="307.584"/>
      </g>
     </g>
     <g id="text_4">
      <!-- 39.5 -->
      <g transform="translate(180.387187 322.182437)scale(0.1 -0.1)">
       <use xlink:href="#DejaVuSans-33"/>
       <use x="63.623047" xlink:href="#DejaVuSans-39"/>
       <use x="127.246094" xlink:href="#DejaVuSans-2e"/>
       <use x="159.033203" xlink:href="#DejaVuSans-35"/>
      </g>
     </g>
    </g>
    <g id="xtick_5">
     <g id="line2d_5">
      <g>
       <use style="stroke:#000000;stroke-width:0.8;" x="236.16" xlink:href="#mf308cbf319" y="307.584"/>
      </g>
     </g>
     <g id="text_5">
      <!-- 40.0 -->
      <defs>
       <path d="M 37.796875 64.3125 
L 12.890625 25.390625 
L 37.796875 25.390625 
z
M 35.203125 72.90625 
L 47.609375 72.90625 
L 47.609375 25.390625 
L 58.015625 25.390625 
L 58.015625 17.1875 
L 47.609375 17.1875 
L 47.609375 0 
L 37.796875 0 
L 37.796875 17.1875 
L 4.890625 17.1875 
L 4.890625 26.703125 
z
" id="DejaVuSans-34"/>
      </defs>
      <g transform="translate(225.027187 322.182437)scale(0.1 -0.1)">
       <use xlink:href="#DejaVuSans-34"/>
       <use x="63.623047" xlink:href="#DejaVuSans-30"/>
       <use x="127.246094" xlink:href="#DejaVuSans-2e"/>
       <use x="159.033203" xlink:href="#DejaVuSans-30"/>
      </g>
     </g>
    </g>
    <g id="xtick_6">
     <g id="line2d_6">
      <g>
       <use style="stroke:#000000;stroke-width:0.8;" x="280.8" xlink:href="#mf308cbf319" y="307.584"/>
      </g>
     </g>
     <g id="text_6">
      <!-- 40.5 -->
      <g transform="translate(269.667188 322.182437)scale(0.1 -0.1)">
       <use xlink:href="#DejaVuSans-34"/>
       <use x="63.623047" xlink:href="#DejaVuSans-30"/>
       <use x="127.246094" xlink:href="#DejaVuSans-2e"/>
       <use x="159.033203" xlink:href="#DejaVuSans-35"/>
      </g>
     </g>
    </g>
    <g id="xtick_7">
     <g id="line2d_7">
      <g>
       <use style="stroke:#000000;stroke-width:0.8;" x="325.44" xlink:href="#mf308cbf319" y="307.584"/>
      </g>
     </g>
     <g id="text_7">
      <!-- 41.0 -->
      <defs>
       <path d="M 12.40625 8.296875 
L 28.515625 8.296875 
L 28.515625 63.921875 
L 10.984375 60.40625 
L 10.984375 69.390625 
L 28.421875 72.90625 
L 38.28125 72.90625 
L 38.28125 8.296875 
L 54.390625 8.296875 
L 54.390625 0 
L 12.40625 0 
z
" id="DejaVuSans-31"/>
      </defs>
      <g transform="translate(314.307188 322.182437)scale(0.1 -0.1)">
       <use xlink:href="#DejaVuSans-34"/>
       <use x="63.623047" xlink:href="#DejaVuSans-31"/>
       <use x="127.246094" xlink:href="#DejaVuSans-2e"/>
       <use x="159.033203" xlink:href="#DejaVuSans-30"/>
      </g>
     </g>
    </g>
    <g id="xtick_8">
     <g id="line2d_8">
      <g>
       <use style="stroke:#000000;stroke-width:0.8;" x="370.08" xlink:href="#mf308cbf319" y="307.584"/>
      </g>
     </g>
     <g id="text_8">
      <!-- 41.5 -->
      <g transform="translate(358.947187 322.182437)scale(0.1 -0.1)">
       <use xlink:href="#DejaVuSans-34"/>
       <use x="63.623047" xlink:href="#DejaVuSans-31"/>
       <use x="127.246094" xlink:href="#DejaVuSans-2e"/>
       <use x="159.033203" xlink:href="#DejaVuSans-35"/>
      </g>
     </g>
    </g>
    <g id="xtick_9">
     <g id="line2d_9">
      <g>
       <use style="stroke:#000000;stroke-width:0.8;" x="414.72" xlink:href="#mf308cbf319" y="307.584"/>
      </g>
     </g>
     <g id="text_9">
      <!-- 42.0 -->
      <defs>
       <path d="M 19.1875 8.296875 
L 53.609375 8.296875 
L 53.609375 0 
L 7.328125 0 
L 7.328125 8.296875 
Q 12.9375 14.109375 22.625 23.890625 
Q 32.328125 33.6875 34.8125 36.53125 
Q 39.546875 41.84375 41.421875 45.53125 
Q 43.3125 49.21875 43.3125 52.78125 
Q 43.3125 58.59375 39.234375 62.25 
Q 35.15625 65.921875 28.609375 65.921875 
Q 23.96875 65.921875 18.8125 64.3125 
Q 13.671875 62.703125 7.8125 59.421875 
L 7.8125 69.390625 
Q 13.765625 71.78125 18.9375 73 
Q 24.125 74.21875 28.421875 74.21875 
Q 39.75 74.21875 46.484375 68.546875 
Q 53.21875 62.890625 53.21875 53.421875 
Q 53.21875 48.921875 51.53125 44.890625 
Q 49.859375 40.875 45.40625 35.40625 
Q 44.1875 33.984375 37.640625 27.21875 
Q 31.109375 20.453125 19.1875 8.296875 
z
" id="DejaVuSans-32"/>
      </defs>
      <g transform="translate(403.587188 322.182437)scale(0.1 -0.1)">
       <use xlink:href="#DejaVuSans-34"/>
       <use x="63.623047" xlink:href="#DejaVuSans-32"/>
       <use x="127.246094" xlink:href="#DejaVuSans-2e"/>
       <use x="159.033203" xlink:href="#DejaVuSans-30"/>
      </g>
     </g>
    </g>
    <g id="text_10">
     <!-- Time (s) -->
     <defs>
      <path d="M -0.296875 72.90625 
L 61.375 72.90625 
L 61.375 64.59375 
L 35.5 64.59375 
L 35.5 0 
L 25.59375 0 
L 25.59375 64.59375 
L -0.296875 64.59375 
z
" id="DejaVuSans-54"/>
      <path d="M 9.421875 54.6875 
L 18.40625 54.6875 
L 18.40625 0 
L 9.421875 0 
z
M 9.421875 75.984375 
L 18.40625 75.984375 
L 18.40625 64.59375 
L 9.421875 64.59375 
z
" id="DejaVuSans-69"/>
      <path d="M 52 44.1875 
Q 55.375 50.25 60.0625 53.125 
Q 64.75 56 71.09375 56 
Q 79.640625 56 84.28125 50.015625 
Q 88.921875 44.046875 88.921875 33.015625 
L 88.921875 0 
L 79.890625 0 
L 79.890625 32.71875 
Q 79.890625 40.578125 77.09375 44.375 
Q 74.3125 48.1875 68.609375 48.1875 
Q 61.625 48.1875 57.5625 43.546875 
Q 53.515625 38.921875 53.515625 30.90625 
L 53.515625 0 
L 44.484375 0 
L 44.484375 32.71875 
Q 44.484375 40.625 41.703125 44.40625 
Q 38.921875 48.1875 33.109375 48.1875 
Q 26.21875 48.1875 22.15625 43.53125 
Q 18.109375 38.875 18.109375 30.90625 
L 18.109375 0 
L 9.078125 0 
L 9.078125 54.6875 
L 18.109375 54.6875 
L 18.109375 46.1875 
Q 21.1875 51.21875 25.484375 53.609375 
Q 29.78125 56 35.6875 56 
Q 41.65625 56 45.828125 52.96875 
Q 50 49.953125 52 44.1875 
z
" id="DejaVuSans-6d"/>
      <path d="M 56.203125 29.59375 
L 56.203125 25.203125 
L 14.890625 25.203125 
Q 15.484375 15.921875 20.484375 11.0625 
Q 25.484375 6.203125 34.421875 6.203125 
Q 39.59375 6.203125 44.453125 7.46875 
Q 49.3125 8.734375 54.109375 11.28125 
L 54.109375 2.78125 
Q 49.265625 0.734375 44.1875 -0.34375 
Q 39.109375 -1.421875 33.890625 -1.421875 
Q 20.796875 -1.421875 13.15625 6.1875 
Q 5.515625 13.8125 5.515625 26.8125 
Q 5.515625 40.234375 12.765625 48.109375 
Q 20.015625 56 32.328125 56 
Q 43.359375 56 49.78125 48.890625 
Q 56.203125 41.796875 56.203125 29.59375 
z
M 47.21875 32.234375 
Q 47.125 39.59375 43.09375 43.984375 
Q 39.0625 48.390625 32.421875 48.390625 
Q 24.90625 48.390625 20.390625 44.140625 
Q 15.875 39.890625 15.1875 32.171875 
z
" id="DejaVuSans-65"/>
      <path id="DejaVuSans-20"/>
      <path d="M 31 75.875 
Q 24.46875 64.65625 21.28125 53.65625 
Q 18.109375 42.671875 18.109375 31.390625 
Q 18.109375 20.125 21.3125 9.0625 
Q 24.515625 -2 31 -13.1875 
L 23.1875 -13.1875 
Q 15.875 -1.703125 12.234375 9.375 
Q 8.59375 20.453125 8.59375 31.390625 
Q 8.59375 42.28125 12.203125 53.3125 
Q 15.828125 64.359375 23.1875 75.875 
z
" id="DejaVuSans-28"/>
      <path d="M 44.28125 53.078125 
L 44.28125 44.578125 
Q 40.484375 46.53125 36.375 47.5 
Q 32.28125 48.484375 27.875 48.484375 
Q 21.1875 48.484375 17.84375 46.4375 
Q 14.5 44.390625 14.5 40.28125 
Q 14.5 37.15625 16.890625 35.375 
Q 19.28125 33.59375 26.515625 31.984375 
L 29.59375 31.296875 
Q 39.15625 29.25 43.1875 25.515625 
Q 47.21875 21.78125 47.21875 15.09375 
Q 47.21875 7.46875 41.1875 3.015625 
Q 35.15625 -1.421875 24.609375 -1.421875 
Q 20.21875 -1.421875 15.453125 -0.5625 
Q 10.6875 0.296875 5.421875 2 
L 5.421875 11.28125 
Q 10.40625 8.6875 15.234375 7.390625 
Q 20.0625 6.109375 24.8125 6.109375 
Q 31.15625 6.109375 34.5625 8.28125 
Q 37.984375 10.453125 37.984375 14.40625 
Q 37.984375 18.0625 35.515625 20.015625 
Q 33.0625 21.96875 24.703125 23.78125 
L 21.578125 24.515625 
Q 13.234375 26.265625 9.515625 29.90625 
Q 5.8125 33.546875 5.8125 39.890625 
Q 5.8125 47.609375 11.28125 51.796875 
Q 16.75 56 26.8125 56 
Q 31.78125 56 36.171875 55.265625 
Q 40.578125 54.546875 44.28125 53.078125 
z
" id="DejaVuSans-73"/>
      <path d="M 8.015625 75.875 
L 15.828125 75.875 
Q 23.140625 64.359375 26.78125 53.3125 
Q 30.421875 42.28125 30.421875 31.390625 
Q 30.421875 20.453125 26.78125 9.375 
Q 23.140625 -1.703125 15.828125 -13.1875 
L 8.015625 -13.1875 
Q 14.5 -2 17.703125 9.0625 
Q 20.90625 20.125 20.90625 31.390625 
Q 20.90625 42.671875 17.703125 53.65625 
Q 14.5 64.65625 8.015625 75.875 
z
" id="DejaVuSans-29"/>
     </defs>
     <g transform="translate(215.677188 335.860562)scale(0.1 -0.1)">
      <use xlink:href="#DejaVuSans-54"/>
      <use x="61.037109" xlink:href="#DejaVuSans-69"/>
      <use x="88.820312" xlink:href="#DejaVuSans-6d"/>
      <use x="186.232422" xlink:href="#DejaVuSans-65"/>
      <use x="247.755859" xlink:href="#DejaVuSans-20"/>
      <use x="279.542969" xlink:href="#DejaVuSans-28"/>
      <use x="318.556641" xlink:href="#DejaVuSans-73"/>
      <use x="370.65625" xlink:href="#DejaVuSans-29"/>
     </g>
    </g>
   </g>
   <g id="matplotlib.axis_2">
    <g id="ytick_1">
     <g id="line2d_10">
      <defs>
       <path d="M 0 0 
L -3.5 0 
" id="m08cd39dc35" style="stroke:#000000;stroke-width:0.8;"/>
      </defs>
      <g>
       <use style="stroke:#000000;stroke-width:0.8;" x="57.6" xlink:href="#m08cd39dc35" y="289.8432"/>
      </g>
     </g>
     <g id="text_11">
      <!-- −200 -->
      <defs>
       <path d="M 10.59375 35.5 
L 73.1875 35.5 
L 73.1875 27.203125 
L 10.59375 27.203125 
z
" id="DejaVuSans-2212"/>
      </defs>
      <g transform="translate(23.132812 293.642419)scale(0.1 -0.1)">
       <use xlink:href="#DejaVuSans-2212"/>
       <use x="83.789062" xlink:href="#DejaVuSans-32"/>
       <use x="147.412109" xlink:href="#DejaVuSans-30"/>
       <use x="211.035156" xlink:href="#DejaVuSans-30"/>
      </g>
     </g>
    </g>
    <g id="ytick_2">
     <g id="line2d_11">
      <g>
       <use style="stroke:#000000;stroke-width:0.8;" x="57.6" xlink:href="#m08cd39dc35" y="254.3616"/>
      </g>
     </g>
     <g id="text_12">
      <!-- −100 -->
      <g transform="translate(23.132812 258.160819)scale(0.1 -0.1)">
       <use xlink:href="#DejaVuSans-2212"/>
       <use x="83.789062" xlink:href="#DejaVuSans-31"/>
       <use x="147.412109" xlink:href="#DejaVuSans-30"/>
       <use x="211.035156" xlink:href="#DejaVuSans-30"/>
      </g>
     </g>
    </g>
    <g id="ytick_3">
     <g id="line2d_12">
      <g>
       <use style="stroke:#000000;stroke-width:0.8;" x="57.6" xlink:href="#m08cd39dc35" y="218.88"/>
      </g>
     </g>
     <g id="text_13">
      <!-- 0 -->
      <g transform="translate(44.2375 222.679219)scale(0.1 -0.1)">
       <use xlink:href="#DejaVuSans-30"/>
      </g>
     </g>
    </g>
    <g id="ytick_4">
     <g id="line2d_13">
      <g>
       <use style="stroke:#000000;stroke-width:0.8;" x="57.6" xlink:href="#m08cd39dc35" y="183.3984"/>
      </g>
     </g>
     <g id="text_14">
      <!-- 100 -->
      <g transform="translate(31.5125 187.197619)scale(0.1 -0.1)">
       <use xlink:href="#DejaVuSans-31"/>
       <use x="63.623047" xlink:href="#DejaVuSans-30"/>
       <use x="127.246094" xlink:href="#DejaVuSans-30"/>
      </g>
     </g>
    </g>
    <g id="ytick_5">
     <g id="line2d_14">
      <g>
       <use style="stroke:#000000;stroke-width:0.8;" x="57.6" xlink:href="#m08cd39dc35" y="147.9168"/>
      </g>
     </g>
     <g id="text_15">
      <!-- 200 -->
      <g transform="translate(31.5125 151.716019)scale(0.1 -0.1)">
       <use xlink:href="#DejaVuSans-32"/>
       <use x="63.623047" xlink:href="#DejaVuSans-30"/>
       <use x="127.246094" xlink:href="#DejaVuSans-30"/>
      </g>
     </g>
    </g>
    <g id="ytick_6">
     <g id="line2d_15">
      <g>
       <use style="stroke:#000000;stroke-width:0.8;" x="57.6" xlink:href="#m08cd39dc35" y="112.4352"/>
      </g>
     </g>
     <g id="text_16">
      <!-- 300 -->
      <g transform="translate(31.5125 116.234419)scale(0.1 -0.1)">
       <use xlink:href="#DejaVuSans-33"/>
       <use x="63.623047" xlink:href="#DejaVuSans-30"/>
       <use x="127.246094" xlink:href="#DejaVuSans-30"/>
      </g>
     </g>
    </g>
    <g id="ytick_7">
     <g id="line2d_16">
      <g>
       <use style="stroke:#000000;stroke-width:0.8;" x="57.6" xlink:href="#m08cd39dc35" y="76.9536"/>
      </g>
     </g>
     <g id="text_17">
      <!-- 400 -->
      <g transform="translate(31.5125 80.752819)scale(0.1 -0.1)">
       <use xlink:href="#DejaVuSans-34"/>
       <use x="63.623047" xlink:href="#DejaVuSans-30"/>
       <use x="127.246094" xlink:href="#DejaVuSans-30"/>
      </g>
     </g>
    </g>
    <g id="ytick_8">
     <g id="line2d_17">
      <g>
       <use style="stroke:#000000;stroke-width:0.8;" x="57.6" xlink:href="#m08cd39dc35" y="41.472"/>
      </g>
     </g>
     <g id="text_18">
      <!-- 500 -->
      <g transform="translate(31.5125 45.271219)scale(0.1 -0.1)">
       <use xlink:href="#DejaVuSans-35"/>
       <use x="63.623047" xlink:href="#DejaVuSans-30"/>
       <use x="127.246094" xlink:href="#DejaVuSans-30"/>
      </g>
     </g>
    </g>
    <g id="text_19">
     <!-- Raw Magnitude -->
     <defs>
      <path d="M 44.390625 34.1875 
Q 47.5625 33.109375 50.5625 29.59375 
Q 53.5625 26.078125 56.59375 19.921875 
L 66.609375 0 
L 56 0 
L 46.6875 18.703125 
Q 43.0625 26.03125 39.671875 28.421875 
Q 36.28125 30.8125 30.421875 30.8125 
L 19.671875 30.8125 
L 19.671875 0 
L 9.8125 0 
L 9.8125 72.90625 
L 32.078125 72.90625 
Q 44.578125 72.90625 50.734375 67.671875 
Q 56.890625 62.453125 56.890625 51.90625 
Q 56.890625 45.015625 53.6875 40.46875 
Q 50.484375 35.9375 44.390625 34.1875 
z
M 19.671875 64.796875 
L 19.671875 38.921875 
L 32.078125 38.921875 
Q 39.203125 38.921875 42.84375 42.21875 
Q 46.484375 45.515625 46.484375 51.90625 
Q 46.484375 58.296875 42.84375 61.546875 
Q 39.203125 64.796875 32.078125 64.796875 
z
" id="DejaVuSans-52"/>
      <path d="M 34.28125 27.484375 
Q 23.390625 27.484375 19.1875 25 
Q 14.984375 22.515625 14.984375 16.5 
Q 14.984375 11.71875 18.140625 8.90625 
Q 21.296875 6.109375 26.703125 6.109375 
Q 34.1875 6.109375 38.703125 11.40625 
Q 43.21875 16.703125 43.21875 25.484375 
L 43.21875 27.484375 
z
M 52.203125 31.203125 
L 52.203125 0 
L 43.21875 0 
L 43.21875 8.296875 
Q 40.140625 3.328125 35.546875 0.953125 
Q 30.953125 -1.421875 24.3125 -1.421875 
Q 15.921875 -1.421875 10.953125 3.296875 
Q 6 8.015625 6 15.921875 
Q 6 25.140625 12.171875 29.828125 
Q 18.359375 34.515625 30.609375 34.515625 
L 43.21875 34.515625 
L 43.21875 35.40625 
Q 43.21875 41.609375 39.140625 45 
Q 35.0625 48.390625 27.6875 48.390625 
Q 23 48.390625 18.546875 47.265625 
Q 14.109375 46.140625 10.015625 43.890625 
L 10.015625 52.203125 
Q 14.9375 54.109375 19.578125 55.046875 
Q 24.21875 56 28.609375 56 
Q 40.484375 56 46.34375 49.84375 
Q 52.203125 43.703125 52.203125 31.203125 
z
" id="DejaVuSans-61"/>
      <path d="M 4.203125 54.6875 
L 13.1875 54.6875 
L 24.421875 12.015625 
L 35.59375 54.6875 
L 46.1875 54.6875 
L 57.421875 12.015625 
L 68.609375 54.6875 
L 77.59375 54.6875 
L 63.28125 0 
L 52.6875 0 
L 40.921875 44.828125 
L 29.109375 0 
L 18.5 0 
z
" id="DejaVuSans-77"/>
      <path d="M 9.8125 72.90625 
L 24.515625 72.90625 
L 43.109375 23.296875 
L 61.8125 72.90625 
L 76.515625 72.90625 
L 76.515625 0 
L 66.890625 0 
L 66.890625 64.015625 
L 48.09375 14.015625 
L 38.1875 14.015625 
L 19.390625 64.015625 
L 19.390625 0 
L 9.8125 0 
z
" id="DejaVuSans-4d"/>
      <path d="M 45.40625 27.984375 
Q 45.40625 37.75 41.375 43.109375 
Q 37.359375 48.484375 30.078125 48.484375 
Q 22.859375 48.484375 18.828125 43.109375 
Q 14.796875 37.75 14.796875 27.984375 
Q 14.796875 18.265625 18.828125 12.890625 
Q 22.859375 7.515625 30.078125 7.515625 
Q 37.359375 7.515625 41.375 12.890625 
Q 45.40625 18.265625 45.40625 27.984375 
z
M 54.390625 6.78125 
Q 54.390625 -7.171875 48.1875 -13.984375 
Q 42 -20.796875 29.203125 -20.796875 
Q 24.46875 -20.796875 20.265625 -20.09375 
Q 16.0625 -19.390625 12.109375 -17.921875 
L 12.109375 -9.1875 
Q 16.0625 -11.328125 19.921875 -12.34375 
Q 23.78125 -13.375 27.78125 -13.375 
Q 36.625 -13.375 41.015625 -8.765625 
Q 45.40625 -4.15625 45.40625 5.171875 
L 45.40625 9.625 
Q 42.625 4.78125 38.28125 2.390625 
Q 33.9375 0 27.875 0 
Q 17.828125 0 11.671875 7.65625 
Q 5.515625 15.328125 5.515625 27.984375 
Q 5.515625 40.671875 11.671875 48.328125 
Q 17.828125 56 27.875 56 
Q 33.9375 56 38.28125 53.609375 
Q 42.625 51.21875 45.40625 46.390625 
L 45.40625 54.6875 
L 54.390625 54.6875 
z
" id="DejaVuSans-67"/>
      <path d="M 54.890625 33.015625 
L 54.890625 0 
L 45.90625 0 
L 45.90625 32.71875 
Q 45.90625 40.484375 42.875 44.328125 
Q 39.84375 48.1875 33.796875 48.1875 
Q 26.515625 48.1875 22.3125 43.546875 
Q 18.109375 38.921875 18.109375 30.90625 
L 18.109375 0 
L 9.078125 0 
L 9.078125 54.6875 
L 18.109375 54.6875 
L 18.109375 46.1875 
Q 21.34375 51.125 25.703125 53.5625 
Q 30.078125 56 35.796875 56 
Q 45.21875 56 50.046875 50.171875 
Q 54.890625 44.34375 54.890625 33.015625 
z
" id="DejaVuSans-6e"/>
      <path d="M 18.3125 70.21875 
L 18.3125 54.6875 
L 36.8125 54.6875 
L 36.8125 47.703125 
L 18.3125 47.703125 
L 18.3125 18.015625 
Q 18.3125 11.328125 20.140625 9.421875 
Q 21.96875 7.515625 27.59375 7.515625 
L 36.8125 7.515625 
L 36.8125 0 
L 27.59375 0 
Q 17.1875 0 13.234375 3.875 
Q 9.28125 7.765625 9.28125 18.015625 
L 9.28125 47.703125 
L 2.6875 47.703125 
L 2.6875 54.6875 
L 9.28125 54.6875 
L 9.28125 70.21875 
z
" id="DejaVuSans-74"/>
      <path d="M 8.5 21.578125 
L 8.5 54.6875 
L 17.484375 54.6875 
L 17.484375 21.921875 
Q 17.484375 14.15625 20.5 10.265625 
Q 23.53125 6.390625 29.59375 6.390625 
Q 36.859375 6.390625 41.078125 11.03125 
Q 45.3125 15.671875 45.3125 23.6875 
L 45.3125 54.6875 
L 54.296875 54.6875 
L 54.296875 0 
L 45.3125 0 
L 45.3125 8.40625 
Q 42.046875 3.421875 37.71875 1 
Q 33.40625 -1.421875 27.6875 -1.421875 
Q 18.265625 -1.421875 13.375 4.4375 
Q 8.5 10.296875 8.5 21.578125 
z
M 31.109375 56 
z
" id="DejaVuSans-75"/>
      <path d="M 45.40625 46.390625 
L 45.40625 75.984375 
L 54.390625 75.984375 
L 54.390625 0 
L 45.40625 0 
L 45.40625 8.203125 
Q 42.578125 3.328125 38.25 0.953125 
Q 33.9375 -1.421875 27.875 -1.421875 
Q 17.96875 -1.421875 11.734375 6.484375 
Q 5.515625 14.40625 5.515625 27.296875 
Q 5.515625 40.1875 11.734375 48.09375 
Q 17.96875 56 27.875 56 
Q 33.9375 56 38.25 53.625 
Q 42.578125 51.265625 45.40625 46.390625 
z
M 14.796875 27.296875 
Q 14.796875 17.390625 18.875 11.75 
Q 22.953125 6.109375 30.078125 6.109375 
Q 37.203125 6.109375 41.296875 11.75 
Q 45.40625 17.390625 45.40625 27.296875 
Q 45.40625 37.203125 41.296875 42.84375 
Q 37.203125 48.484375 30.078125 48.484375 
Q 22.953125 48.484375 18.875 42.84375 
Q 14.796875 37.203125 14.796875 27.296875 
z
" id="DejaVuSans-64"/>
     </defs>
     <g transform="translate(17.053125 213.232687)rotate(-90)scale(0.1 -0.1)">
      <use xlink:href="#DejaVuSans-52"/>
      <use x="69.451172" xlink:href="#DejaVuSans-61"/>
      <use x="130.730469" xlink:href="#DejaVuSans-77"/>
      <use x="212.517578" xlink:href="#DejaVuSans-20"/>
      <use x="244.304688" xlink:href="#DejaVuSans-4d"/>
      <use x="330.583984" xlink:href="#DejaVuSans-61"/>
      <use x="391.863281" xlink:href="#DejaVuSans-67"/>
      <use x="455.339844" xlink:href="#DejaVuSans-6e"/>
      <use x="518.71875" xlink:href="#DejaVuSans-69"/>
      <use x="546.501953" xlink:href="#DejaVuSans-74"/>
      <use x="585.710938" xlink:href="#DejaVuSans-75"/>
      <use x="649.089844" xlink:href="#DejaVuSans-64"/>
      <use x="712.566406" xlink:href="#DejaVuSans-65"/>
     </g>
    </g>
   </g>
   <g id="line2d_18">
    <path clip-path="url(#p237417c9c2)" d="M 57.335177 254.697756 
L 58.049436 201.139261 
L 58.406566 208.894276 
L 58.763696 245.470808 
L 59.120826 253.321805 
L 59.835085 196.251302 
L 60.192215 209.23119 
L 60.549344 242.825976 
L 60.906474 254.405541 
L 61.620734 205.403983 
L 61.977863 216.903507 
L 62.334993 253.993206 
L 62.692123 256.221894 
L 63.406382 203.599988 
L 63.763512 210.614071 
L 64.120642 242.241198 
L 64.477771 254.274564 
L 64.834901 230.502936 
L 65.192031 197.928708 
L 65.54916 207.76203 
L 65.90629 240.335681 
L 66.26342 254.579714 
L 66.977679 202.320364 
L 67.334809 209.019709 
L 67.691939 240.446791 
L 68.049068 255.111708 
L 68.763328 193.13927 
L 69.120458 201.716991 
L 69.477587 234.890433 
L 69.834717 240.69119 
L 70.548976 183.84672 
L 70.906106 196.297156 
L 71.263236 228.314789 
L 71.620366 239.151227 
L 72.334625 184.927453 
L 72.691755 193.557379 
L 73.048884 227.392637 
L 73.406014 236.118546 
L 74.120274 186.626226 
L 74.477403 192.050684 
L 74.834533 222.174002 
L 75.191663 236.238203 
L 75.905922 183.483241 
L 76.263052 196.410114 
L 76.620182 225.77402 
L 76.977311 241.884766 
L 77.334441 222.598695 
L 77.691571 193.5009 
L 78.048701 198.628292 
L 78.40583 236.351624 
L 78.76296 249.490441 
L 79.477219 195.911154 
L 79.834349 207.365518 
L 80.191479 237.890777 
L 80.548609 251.694757 
L 80.905738 229.047867 
L 81.262868 197.223234 
L 81.619998 202.395438 
L 81.977127 236.770081 
L 82.334257 251.72467 
L 82.691387 232.787756 
L 83.048517 198.522609 
L 83.405646 205.418304 
L 83.762776 236.027416 
L 84.119906 255.711499 
L 84.834165 198.506092 
L 85.191295 201.94522 
L 85.548425 235.21626 
L 85.905554 249.948281 
L 86.262684 227.955122 
L 86.619814 199.040742 
L 86.976943 203.128056 
L 87.334073 240.685068 
L 87.691203 251.52936 
L 88.048333 229.599842 
L 88.405462 197.225428 
L 88.762592 203.72981 
L 89.119722 236.366293 
L 89.476851 254.014228 
L 89.833981 234.899212 
L 90.191111 206.970508 
L 90.548241 204.119045 
L 90.90537 236.363058 
L 91.2625 258.186202 
L 91.61963 236.914571 
L 91.976759 201.239053 
L 92.333889 205.390816 
L 92.691019 237.397822 
L 93.048149 254.483619 
L 93.405278 234.576389 
L 93.762408 202.153581 
L 94.119538 201.13776 
L 94.476667 232.355094 
L 94.833797 245.272843 
L 95.190927 226.356256 
L 95.548057 197.470174 
L 95.905186 193.428368 
L 96.262316 224.622255 
L 96.619446 241.929118 
L 96.976576 222.979152 
L 97.333705 194.923399 
L 97.690835 192.286304 
L 98.047965 226.356372 
L 98.405094 247.837056 
L 98.762224 226.217079 
L 99.119354 196.838851 
L 99.476484 198.262041 
L 99.833613 236.916419 
L 100.190743 254.94585 
L 100.547873 243.0132 
L 100.905002 208.523983 
L 101.262132 204.052863 
L 101.619262 235.95777 
L 101.976392 256.483964 
L 102.333521 240.527988 
L 102.690651 210.069142 
L 103.047781 206.255102 
L 103.76204 262.085827 
L 104.11917 240.408561 
L 104.4763 208.292637 
L 104.833429 204.556328 
L 105.190559 239.248594 
L 105.547689 260.474142 
L 105.904818 240.712556 
L 106.261948 208.163277 
L 106.619078 205.632095 
L 106.976208 233.763847 
L 107.333337 250.973805 
L 107.690467 231.493348 
L 108.047597 201.377653 
L 108.404726 196.411616 
L 109.118986 250.413861 
L 109.476116 232.669485 
L 109.833245 199.100455 
L 110.190375 196.544209 
L 110.904634 251.289466 
L 111.261764 235.408682 
L 111.618894 204.553325 
L 111.976024 195.493508 
L 112.690283 253.560427 
L 113.047413 242.082964 
L 113.404542 205.800956 
L 113.761672 200.432864 
L 114.475932 251.368238 
L 114.833061 238.225496 
L 115.190191 205.244708 
L 115.547321 192.772327 
L 115.90445 226.187626 
L 116.26158 244.767529 
L 116.61871 232.594872 
L 116.97584 200.011866 
L 117.332969 192.51511 
L 117.690099 227.337312 
L 118.047229 246.422067 
L 118.404358 237.046703 
L 118.761488 202.74448 
L 119.118618 200.369569 
L 119.832877 254.712309 
L 120.190007 241.151803 
L 120.547137 206.356973 
L 120.904267 197.352132 
L 121.618526 247.33648 
L 121.975656 237.120392 
L 122.332785 203.742053 
L 122.689915 195.68928 
L 123.404175 250.472419 
L 123.761304 238.402211 
L 124.118434 207.084853 
L 124.475564 198.545132 
L 125.189823 251.193486 
L 125.546953 240.122698 
L 125.904083 203.597332 
L 126.261212 193.626449 
L 126.975472 251.216124 
L 127.332601 241.240276 
L 127.689731 208.302686 
L 128.046861 198.761809 
L 128.403991 223.34829 
L 128.76112 256.918705 
L 129.11825 245.42484 
L 129.47538 211.634051 
L 129.832509 202.708791 
L 130.546769 255.314294 
L 130.903899 243.008928 
L 131.261028 208.75868 
L 131.618158 196.607389 
L 132.332417 248.80668 
L 132.689547 235.579275 
L 133.046677 205.59756 
L 133.403807 190.475611 
L 134.118066 246.602593 
L 134.475196 237.272159 
L 134.832325 201.094216 
L 135.189455 189.1268 
L 135.903715 240.106644 
L 136.260844 233.842618 
L 136.617974 195.461397 
L 136.975104 185.66111 
L 137.689363 239.322052 
L 138.046493 227.602847 
L 138.403623 195.049062 
L 138.760752 176.866247 
L 139.475012 227.423244 
L 139.832141 221.687747 
L 140.189271 187.262747 
L 140.546401 172.174177 
L 140.903531 198.02596 
L 141.26066 233.69293 
L 141.61779 228.11047 
L 141.97492 193.973066 
L 142.332049 176.40136 
L 143.046309 233.082744 
L 143.403439 226.316639 
L 143.760568 189.54341 
L 144.117698 176.4501 
L 144.831958 223.699179 
L 145.189087 214.536103 
L 145.546217 181.703387 
L 145.903347 166.997813 
L 146.260476 188.687092 
L 146.617606 219.500062 
L 146.974736 214.285931 
L 147.331866 180.817503 
L 147.688995 165.620476 
L 148.046125 189.32188 
L 148.403255 223.499248 
L 148.760384 220.971069 
L 149.117514 191.448697 
L 149.474644 176.51224 
L 149.831774 196.573778 
L 150.188903 226.634726 
L 150.546033 224.365036 
L 151.260292 169.05487 
L 151.617422 190.811023 
L 151.974552 226.880048 
L 152.331682 219.420251 
L 152.688811 185.518812 
L 153.045941 168.406103 
L 153.403071 189.011416 
L 153.7602 223.034245 
L 154.11733 218.978117 
L 154.47446 190.002176 
L 154.83159 171.885542 
L 155.188719 191.301321 
L 155.545849 222.339167 
L 155.902979 222.135425 
L 156.617238 171.396864 
L 156.974368 192.8064 
L 157.331498 225.509294 
L 157.688627 226.870462 
L 158.402887 175.145761 
L 158.760016 194.94234 
L 159.117146 232.284638 
L 159.474276 227.389634 
L 160.188535 179.706045 
L 160.545665 199.923624 
L 160.902795 232.074429 
L 161.259924 232.521991 
L 161.617054 198.758459 
L 161.974184 182.342449 
L 162.331314 200.675067 
L 162.688443 228.765585 
L 163.045573 229.345164 
L 163.402703 193.211112 
L 163.759832 179.086272 
L 164.116962 191.350754 
L 164.474092 229.207719 
L 164.831222 225.975915 
L 165.545481 168.599796 
L 165.902611 192.19044 
L 166.259741 223.759239 
L 166.61687 222.077675 
L 167.33113 172.277201 
L 167.688259 191.391294 
L 168.045389 221.999366 
L 168.402519 223.461018 
L 168.759649 189.435995 
L 169.116778 168.662053 
L 169.473908 187.823616 
L 169.831038 216.664306 
L 170.188167 216.051463 
L 170.545297 184.310106 
L 170.902427 165.126139 
L 171.259557 178.784355 
L 171.616686 209.607027 
L 171.973816 219.369316 
L 172.688075 164.929901 
L 173.045205 180.398931 
L 173.402335 212.82936 
L 173.759465 219.116255 
L 174.473724 165.225352 
L 174.830854 184.5582 
L 175.187983 218.143861 
L 175.545113 227.082866 
L 176.259373 172.5268 
L 176.616502 190.592149 
L 176.973632 226.030084 
L 177.330762 234.489186 
L 178.045021 182.910823 
L 178.402151 195.470406 
L 178.759281 231.211297 
L 179.11641 241.131938 
L 179.47354 205.490145 
L 179.83067 185.832048 
L 180.187799 199.464165 
L 180.544929 231.056874 
L 180.902059 232.398868 
L 181.616318 173.692656 
L 181.973448 187.752005 
L 182.330578 213.994755 
L 182.687707 223.843785 
L 183.401967 169.559141 
L 183.759097 181.515354 
L 184.116226 215.927416 
L 184.473356 222.394144 
L 185.187615 170.16413 
L 185.544745 180.55266 
L 185.901875 219.824732 
L 186.259005 224.99532 
L 186.616134 192.567892 
L 186.973264 170.514328 
L 187.330394 182.879638 
L 187.687523 219.627574 
L 188.044653 224.993934 
L 188.758913 170.085242 
L 189.116042 184.698533 
L 189.473172 216.606556 
L 189.830302 223.122256 
L 190.544561 173.135021 
L 190.901691 182.842449 
L 191.258821 215.683134 
L 191.61595 217.780613 
L 192.33021 161.167951 
L 192.68734 174.521135 
L 193.044469 208.191113 
L 193.401599 214.541417 
L 194.115858 162.280335 
L 194.472988 171.386815 
L 194.830118 204.263766 
L 195.187248 221.307405 
L 195.901507 168.984531 
L 196.258637 185.415325 
L 196.615766 220.749194 
L 196.972896 232.352899 
L 197.687156 172.948951 
L 198.044285 180.49029 
L 198.401415 214.84726 
L 198.758545 227.321373 
L 199.472804 172.178102 
L 199.829934 179.518358 
L 200.187064 215.064401 
L 200.544193 223.972105 
L 201.258453 171.627513 
L 201.615582 181.334248 
L 201.972712 213.189952 
L 202.329842 223.155174 
L 203.044101 167.983026 
L 203.401231 174.708708 
L 203.758361 210.450061 
L 204.11549 224.250114 
L 204.82975 165.712991 
L 205.18688 175.297874 
L 205.544009 211.568562 
L 205.901139 223.343439 
L 206.258269 199.47352 
L 206.615398 165.646463 
L 206.972528 175.740701 
L 207.329658 205.511282 
L 207.686788 221.989086 
L 208.401047 168.703519 
L 208.758177 171.157892 
L 209.115306 207.799452 
L 209.472436 220.04961 
L 210.186696 166.999779 
L 210.543825 170.118279 
L 210.900955 206.46739 
L 211.258085 217.921754 
L 211.615214 198.872921 
L 211.972344 166.136187 
L 212.329474 170.742439 
L 212.686604 204.753602 
L 213.043733 221.6181 
L 213.400863 202.607959 
L 213.757993 166.683191 
L 214.115123 172.071726 
L 214.472252 200.617317 
L 214.829382 217.18602 
L 215.186512 191.294274 
L 215.543641 156.625222 
L 215.900771 159.857834 
L 216.257901 196.564884 
L 216.615031 211.792979 
L 216.97216 187.844406 
L 217.32929 154.043916 
L 217.68642 155.052459 
L 218.043549 189.948698 
L 218.400679 204.753833 
L 219.114939 150.436158 
L 219.472068 157.509604 
L 219.829198 191.288384 
L 220.186328 208.588202 
L 220.543457 184.327545 
L 220.900587 148.965493 
L 221.257717 151.23692 
L 221.971976 207.308577 
L 222.686236 146.001651 
L 223.043365 148.47878 
L 223.400495 179.913484 
L 223.757625 195.850633 
L 224.114755 176.253521 
L 224.471884 146.230688 
L 224.829014 149.266374 
L 225.186144 180.716901 
L 225.543273 200.196551 
L 226.257533 140.806923 
L 226.614663 140.173981 
L 226.971792 174.279741 
L 227.328922 193.648509 
L 227.686052 172.629591 
L 228.043181 144.816854 
L 228.400311 143.26742 
L 228.757441 180.56756 
L 229.114571 196.537972 
L 229.4717 180.182136 
L 229.82883 142.464693 
L 230.18596 143.219256 
L 230.543089 179.701656 
L 230.900219 200.729468 
L 231.257349 180.860815 
L 231.614479 151.010422 
L 231.971608 153.425181 
L 232.328738 187.96903 
L 232.685868 209.669397 
L 233.042997 186.074598 
L 233.400127 153.71728 
L 233.757257 147.301373 
L 234.114387 181.956909 
L 234.471516 204.482639 
L 234.828646 183.054507 
L 235.185776 152.933037 
L 235.542906 147.157575 
L 235.900035 179.27038 
L 236.257165 199.056796 
L 236.614295 184.926644 
L 236.971424 151.152255 
L 237.328554 152.373093 
L 238.042814 206.070648 
L 238.399943 184.885643 
L 238.757073 153.576369 
L 239.114203 152.223865 
L 239.828462 200.223924 
L 240.185592 180.108564 
L 240.542722 148.000377 
L 240.899851 140.369754 
L 241.614111 193.107392 
L 241.97124 179.320969 
L 242.32837 144.387308 
L 242.6855 142.454991 
L 243.399759 198.634067 
L 243.756889 184.814841 
L 244.114019 147.342606 
L 244.471148 141.074654 
L 245.185408 198.417851 
L 245.542538 183.191028 
L 245.899667 153.36443 
L 246.256797 147.371479 
L 246.613927 182.108792 
L 246.971056 204.68153 
L 247.328186 190.772562 
L 247.685316 153.145095 
L 248.042446 149.038605 
L 248.756705 201.596756 
L 249.113835 189.16203 
L 249.470964 146.8269 
L 249.828094 141.220644 
L 250.542354 197.440605 
L 250.899483 186.514886 
L 251.256613 151.397003 
L 251.613743 149.020473 
L 252.328002 200.86645 
L 252.685132 185.391993 
L 253.042262 153.331279 
L 253.399391 145.132976 
L 253.756521 179.649798 
L 254.113651 202.973978 
L 254.47078 191.859416 
L 254.82791 156.546799 
L 255.18504 147.75702 
L 255.899299 203.077467 
L 256.256429 189.067319 
L 256.613559 153.468033 
L 256.970688 148.36039 
L 257.684948 208.851887 
L 258.042078 196.239637 
L 258.399207 166.97679 
L 258.756337 154.36824 
L 259.470597 212.622846 
L 259.827726 198.541205 
L 260.184856 167.321098 
L 260.541986 153.187368 
L 261.256245 208.200468 
L 261.613375 197.679113 
L 261.970505 164.771551 
L 262.327634 151.291667 
L 263.041894 208.7864 
L 263.399023 197.031735 
L 263.756153 160.291539 
L 264.113283 153.153639 
L 264.827542 210.098017 
L 265.184672 204.160394 
L 265.541802 170.876648 
L 265.898931 162.303085 
L 266.613191 219.05146 
L 266.970321 212.024441 
L 267.32745 176.923073 
L 267.68458 166.657437 
L 268.398839 225.929945 
L 268.755969 221.20103 
L 269.113099 187.120452 
L 269.470229 176.501729 
L 270.184488 232.331532 
L 270.541618 225.295042 
L 270.898747 191.512339 
L 271.255877 173.176601 
L 271.613007 198.140766 
L 271.970137 232.368607 
L 272.327266 218.25682 
L 272.684396 185.34383 
L 273.041526 172.865098 
L 273.398655 198.485302 
L 273.755785 233.229313 
L 274.112915 224.613823 
L 274.470045 194.468328 
L 274.827174 181.047 
L 275.541434 233.945644 
L 275.898563 223.551801 
L 276.255693 186.792086 
L 276.612823 170.860709 
L 277.327082 224.918512 
L 277.684212 223.459978 
L 278.041342 191.988777 
L 278.398471 176.890848 
L 278.755601 200.281443 
L 279.112731 239.995879 
L 279.469861 231.257844 
L 279.82699 197.340005 
L 280.18412 181.950095 
L 280.54125 200.226003 
L 280.898379 234.919309 
L 281.255509 225.345515 
L 281.612639 196.515566 
L 281.969769 180.00646 
L 282.326898 200.976176 
L 282.684028 234.314089 
L 283.041158 226.647893 
L 283.398288 194.848325 
L 283.755417 178.895121 
L 284.112547 198.206716 
L 284.469677 229.659093 
L 284.826806 227.667412 
L 285.183936 192.223817 
L 285.541066 178.872135 
L 285.898196 199.075623 
L 286.255325 226.557226 
L 286.612455 223.093613 
L 286.969585 186.399385 
L 287.326714 170.993305 
L 287.683844 187.831239 
L 288.040974 221.824383 
L 288.398104 218.061625 
L 288.755233 182.198652 
L 289.112363 164.570467 
L 289.469493 186.550689 
L 289.826622 217.702767 
L 290.183752 218.294704 
L 290.540882 180.751435 
L 290.898012 159.225012 
L 291.255141 178.806647 
L 291.612271 209.917028 
L 291.969401 213.68637 
L 292.32653 178.255482 
L 292.68366 158.735986 
L 293.04079 171.09379 
L 293.39792 208.165356 
L 293.755049 208.479401 
L 294.112179 173.336798 
L 294.469309 151.509496 
L 294.826438 171.975286 
L 295.183568 202.415882 
L 295.540698 206.229923 
L 295.897828 170.364061 
L 296.254957 147.731379 
L 296.612087 166.132029 
L 296.969217 198.199093 
L 297.326346 199.712027 
L 298.040606 145.121195 
L 298.397736 165.938563 
L 298.754865 196.556568 
L 299.111995 199.335845 
L 299.826254 142.203432 
L 300.183384 162.840739 
L 300.540514 197.000781 
L 300.897644 201.263193 
L 301.611903 153.879442 
L 301.969033 171.981409 
L 302.326162 201.378114 
L 302.683292 206.727843 
L 303.040422 168.27178 
L 303.397552 146.108833 
L 303.754681 162.050833 
L 304.111811 195.753383 
L 304.468941 198.142037 
L 305.1832 137.807045 
L 305.54033 154.213929 
L 305.89746 187.484277 
L 306.254589 186.947895 
L 306.968849 130.834539 
L 307.325979 144.12674 
L 307.683108 177.498842 
L 308.040238 177.316004 
L 308.754497 123.604129 
L 309.111627 135.609656 
L 309.468757 167.66887 
L 309.825887 172.778126 
L 310.540146 115.99395 
L 310.897276 135.014483 
L 311.254405 164.677996 
L 311.611535 172.166554 
L 312.325795 116.98886 
L 312.682924 132.766737 
L 313.040054 161.057764 
L 313.397184 171.199472 
L 313.754313 136.587712 
L 314.111443 116.425223 
L 314.468573 127.428103 
L 314.825703 156.545527 
L 315.182832 158.110088 
L 315.897092 100.245525 
L 316.254221 106.621352 
L 316.611351 140.712789 
L 316.968481 144.972313 
L 317.68274 77.416372 
L 318.03987 89.483354 
L 318.397 118.806837 
L 318.754129 124.043838 
L 319.468389 64.435562 
L 319.825519 73.647503 
L 320.182648 106.599415 
L 320.539778 118.291353 
L 321.254037 61.381511 
L 321.611167 69.343388 
L 321.968297 108.856743 
L 322.325427 120.702538 
L 323.039686 71.886471 
L 323.396816 80.543881 
L 323.753945 120.338475 
L 324.111075 139.777239 
L 324.825335 86.244846 
L 325.182464 100.99651 
L 325.539594 134.877501 
L 325.896724 147.356233 
L 326.610983 105.274279 
L 326.968113 118.992214 
L 327.325243 162.178924 
L 327.682372 177.962459 
L 328.396632 130.790301 
L 328.753762 151.762095 
L 329.110891 190.355489 
L 329.468021 203.154851 
L 330.18228 150.870897 
L 330.53941 168.923774 
L 330.89654 205.607378 
L 331.25367 220.674696 
L 331.967929 178.4121 
L 332.325059 191.221739 
L 332.682188 226.904072 
L 333.039318 244.515394 
L 333.753578 199.619512 
L 334.110707 213.552737 
L 334.467837 248.613333 
L 334.824967 262.940642 
L 335.539226 215.763175 
L 335.896356 222.898533 
L 336.253486 254.48997 
L 336.610615 271.057405 
L 337.324875 213.4392 
L 337.682004 222.624452 
L 338.039134 252.802055 
L 338.396264 264.925161 
L 339.110523 208.852003 
L 339.467653 215.510808 
L 339.824783 249.923217 
L 340.181912 261.068966 
L 340.896172 203.923157 
L 341.253302 206.770463 
L 341.610431 244.69592 
L 341.967561 257.571165 
L 342.68182 203.085783 
L 343.03895 202.680839 
L 343.39608 237.079159 
L 343.75321 252.058582 
L 344.110339 232.372072 
L 344.467469 199.158898 
L 344.824599 202.449955 
L 345.181728 234.388125 
L 345.538858 251.081106 
L 346.253118 193.209263 
L 346.610247 193.495702 
L 346.967377 226.979494 
L 347.324507 247.738767 
L 348.038766 186.903312 
L 348.395896 186.002759 
L 349.110155 239.218333 
L 349.467285 213.68048 
L 349.824415 179.232612 
L 350.181544 180.925841 
L 350.895804 239.602487 
L 351.252934 218.43238 
L 351.610063 184.627961 
L 351.967193 182.203503 
L 352.324323 217.521201 
L 352.681453 235.50628 
L 353.038582 217.71062 
L 353.395712 178.706625 
L 353.752842 180.936699 
L 354.109971 215.950285 
L 354.467101 233.253915 
L 354.824231 212.414831 
L 355.181361 183.027826 
L 355.53849 185.004376 
L 355.89562 215.590503 
L 356.25275 235.340883 
L 356.609879 215.076759 
L 356.967009 185.967993 
L 357.324139 184.093311 
L 357.681269 216.119608 
L 358.038398 233.575929 
L 358.395528 215.495447 
L 358.752658 183.775224 
L 359.109787 187.232141 
L 359.466917 218.565551 
L 359.824047 239.68299 
L 360.538306 186.895689 
L 360.895436 184.242306 
L 361.252566 219.031825 
L 361.609695 238.167515 
L 361.966825 220.58553 
L 362.323955 182.56363 
L 362.681085 183.039375 
L 363.038214 219.656564 
L 363.395344 243.845956 
L 363.752474 223.50895 
L 364.109603 190.325344 
L 364.466733 184.55127 
L 364.823863 223.755543 
L 365.180993 243.995414 
L 365.538122 225.470602 
L 365.895252 194.280641 
L 366.252382 190.972146 
L 366.609511 224.857413 
L 366.966641 246.822967 
L 367.323771 228.995199 
L 367.680901 192.858375 
L 368.03803 189.710539 
L 368.39516 227.909961 
L 368.75229 249.094505 
L 369.109419 233.778169 
L 369.466549 199.733395 
L 369.823679 198.048019 
L 370.537938 255.670035 
L 370.895068 237.716719 
L 371.252198 206.986447 
L 371.609327 195.579323 
L 371.966457 230.517951 
L 372.323587 250.645092 
L 372.680717 235.430512 
L 373.037846 201.611425 
L 373.394976 199.647002 
L 374.109236 257.742566 
L 374.466365 240.406713 
L 374.823495 204.473284 
L 375.180625 202.460465 
L 375.894884 255.600042 
L 376.252014 242.483171 
L 376.609144 209.409175 
L 376.966273 201.448339 
L 377.323403 234.117508 
L 377.680533 255.146588 
L 378.037662 242.238772 
L 378.394792 206.783861 
L 378.751922 196.516374 
L 379.466181 247.634354 
L 379.823311 233.244328 
L 380.180441 199.172065 
L 380.53757 195.929058 
L 381.25183 247.647637 
L 381.60896 234.849316 
L 381.966089 198.83596 
L 382.323219 190.672653 
L 383.037478 249.564938 
L 383.394608 232.019451 
L 383.751738 198.547557 
L 384.108868 191.190554 
L 384.823127 246.192914 
L 385.180257 234.266157 
L 385.537386 199.523531 
L 385.894516 190.878358 
L 386.608776 250.792701 
L 386.965905 232.069578 
L 387.323035 195.663753 
L 387.680165 187.042836 
L 388.394424 242.311307 
L 388.751554 225.510796 
L 389.108684 189.008184 
L 389.465813 179.405745 
L 390.180073 233.835226 
L 390.537202 223.898763 
L 390.894332 190.526084 
L 391.251462 177.375488 
L 391.965721 235.439289 
L 392.322851 223.122834 
L 392.679981 189.751426 
L 393.03711 179.723832 
L 393.75137 239.656309 
L 394.1085 228.135186 
L 394.465629 189.353298 
L 394.822759 180.083962 
L 395.537018 235.165439 
L 395.894148 222.173886 
L 396.251278 185.320614 
L 396.608408 176.471583 
L 397.322667 234.332107 
L 397.679797 229.091526 
L 398.036927 191.583372 
L 398.394056 178.514434 
L 399.108316 236.165438 
L 399.465445 223.662334 
L 399.822575 186.955634 
L 400.179705 181.288973 
L 400.893964 234.648576 
L 401.251094 228.25161 
L 401.608224 201.637528 
L 401.965353 186.656951 
L 402.679613 242.876219 
L 403.036743 234.127441 
L 403.393872 200.707407 
L 403.751002 185.711583 
L 404.108132 208.810192 
L 404.465261 242.372521 
L 404.822391 230.928669 
L 405.179521 195.671955 
L 405.536651 182.511195 
L 406.25091 234.530305 
L 406.60804 226.477415 
L 406.965169 192.568931 
L 407.322299 179.093665 
L 408.036559 235.849084 
L 408.393688 231.428553 
L 408.750818 194.002285 
L 409.107948 179.713784 
L 409.822207 233.467359 
L 410.179337 228.728626 
L 410.536467 194.6082 
L 410.893596 182.190796 
L 411.607856 237.181606 
L 411.964985 230.97279 
L 412.322115 200.232933 
L 412.679245 185.299131 
L 413.036375 207.084853 
L 413.393504 236.541506 
L 413.750634 230.21511 
L 414.107764 197.352825 
L 414.464893 183.198881 
L 414.822023 204.714678 
L 414.822023 204.714678 
" style="fill:none;stroke:#1f77b4;stroke-linecap:square;stroke-width:1.5;"/>
   </g>
   <g id="line2d_19">
    <path clip-path="url(#p237417c9c2)" d="M 57.335177 228.105216 
L 57.692307 229.879296 
L 58.049436 228.460032 
L 58.406566 224.911872 
L 58.763696 228.105216 
L 59.120826 225.97632 
L 59.477955 226.685952 
L 59.835085 224.20224 
L 60.192215 226.685952 
L 60.549344 225.621504 
L 60.906474 226.331136 
L 62.334993 236.975616 
L 62.692123 230.234112 
L 63.049252 231.29856 
L 63.406382 230.943744 
L 63.763512 226.331136 
L 64.120642 225.621504 
L 64.834901 229.879296 
L 65.192031 224.20224 
L 65.54916 225.621504 
L 65.90629 225.266688 
L 66.26342 226.685952 
L 66.62055 223.847424 
L 66.977679 228.460032 
L 67.691939 225.97632 
L 68.049068 228.105216 
L 68.406198 223.137792 
L 68.763328 220.299264 
L 69.120458 221.008896 
L 69.477587 219.589632 
L 69.834717 213.202944 
L 70.191847 214.267392 
L 70.548976 211.428864 
L 70.906106 214.622208 
L 71.263236 211.78368 
L 71.620366 211.074048 
L 71.977495 213.912576 
L 72.334625 212.493312 
L 72.691755 211.78368 
L 73.048884 211.428864 
L 73.406014 208.590336 
L 73.763144 212.138496 
L 74.120274 212.493312 
L 74.477403 209.654784 
L 74.834533 208.23552 
L 75.191663 210.364416 
L 75.548793 210.0096 
L 75.905922 207.880704 
L 76.263052 213.912576 
L 76.620182 211.78368 
L 77.334441 218.88 
L 77.691571 217.10592 
L 78.048701 217.460736 
L 78.40583 223.492608 
L 79.12009 220.299264 
L 79.477219 221.008896 
L 79.834349 225.97632 
L 80.191479 223.847424 
L 80.548609 224.557056 
L 80.905738 225.97632 
L 81.262868 222.782976 
L 81.619998 222.073344 
L 81.977127 223.137792 
L 82.334257 223.492608 
L 82.691387 227.7504 
L 83.048517 223.492608 
L 83.405646 226.331136 
L 83.762776 224.20224 
L 84.119906 227.040768 
L 84.477035 222.073344 
L 84.834165 224.20224 
L 85.191295 223.492608 
L 85.548425 223.137792 
L 85.905554 221.008896 
L 86.262684 222.073344 
L 86.619814 223.847424 
L 86.976943 224.20224 
L 87.334073 228.105216 
L 87.691203 222.782976 
L 88.048333 225.266688 
L 88.405462 223.137792 
L 88.762592 224.20224 
L 89.119722 222.782976 
L 89.476851 224.911872 
L 89.833981 229.52448 
L 90.191111 231.653376 
L 90.548241 225.621504 
L 90.90537 225.97632 
L 91.2625 229.52448 
L 91.61963 228.460032 
L 91.976759 225.621504 
L 92.333889 229.52448 
L 92.691019 228.105216 
L 93.048149 225.266688 
L 93.405278 225.621504 
L 93.762408 225.621504 
L 94.476667 224.20224 
L 94.833797 217.815552 
L 95.190927 218.170368 
L 95.548057 219.589632 
L 95.905186 215.686656 
L 96.262316 217.10592 
L 96.619446 215.33184 
L 96.976576 214.267392 
L 97.333705 215.686656 
L 97.690835 213.912576 
L 98.047965 218.88 
L 98.405094 220.299264 
L 98.762224 216.751104 
L 99.476484 220.299264 
L 99.833613 227.395584 
L 100.190743 225.97632 
L 100.547873 233.427456 
L 101.262132 228.105216 
L 101.619262 229.169664 
L 101.976392 228.105216 
L 102.690651 230.943744 
L 103.047781 230.234112 
L 103.40491 232.717824 
L 103.76204 233.427456 
L 104.11917 229.52448 
L 104.4763 230.943744 
L 104.833429 229.52448 
L 105.190559 231.653376 
L 105.547689 230.588928 
L 105.904818 229.879296 
L 106.261948 231.29856 
L 106.619078 230.588928 
L 107.333337 223.137792 
L 107.690467 222.42816 
L 108.047597 223.492608 
L 108.404726 219.589632 
L 108.761856 219.234816 
L 109.118986 222.782976 
L 109.476116 221.718528 
L 109.833245 220.299264 
L 110.190375 221.008896 
L 110.547505 218.170368 
L 110.904634 223.137792 
L 111.261764 222.42816 
L 111.618894 224.20224 
L 111.976024 221.008896 
L 112.333153 222.42816 
L 113.047413 226.685952 
L 113.404542 224.911872 
L 113.761672 227.7504 
L 114.118802 227.395584 
L 114.475932 223.492608 
L 114.833061 223.847424 
L 115.190191 223.847424 
L 115.547321 219.589632 
L 115.90445 224.557056 
L 116.26158 217.460736 
L 116.61871 218.170368 
L 117.332969 218.170368 
L 117.690099 223.847424 
L 118.047229 218.525184 
L 118.404358 223.492608 
L 118.761488 221.718528 
L 119.118618 225.266688 
L 119.475748 225.266688 
L 119.832877 227.040768 
L 120.190007 227.7504 
L 120.547137 225.97632 
L 120.904267 223.492608 
L 121.261396 222.42816 
L 121.618526 219.944448 
L 121.975656 222.782976 
L 122.332785 222.073344 
L 122.689915 221.718528 
L 123.047045 220.65408 
L 123.404175 222.782976 
L 123.761304 222.782976 
L 124.118434 224.557056 
L 124.475564 224.557056 
L 124.832693 228.105216 
L 125.189823 224.20224 
L 125.546953 225.266688 
L 125.904083 222.073344 
L 126.261212 221.008896 
L 126.618342 221.008896 
L 127.689731 225.97632 
L 128.046861 226.685952 
L 128.403991 223.492608 
L 128.76112 228.460032 
L 129.11825 226.331136 
L 129.47538 228.105216 
L 129.832509 231.653376 
L 130.189639 229.169664 
L 130.546769 228.105216 
L 130.903899 225.266688 
L 131.261028 225.266688 
L 131.618158 224.911872 
L 131.975288 221.363712 
L 132.332417 222.073344 
L 132.689547 217.815552 
L 133.046677 221.363712 
L 133.403807 217.815552 
L 133.760936 220.65408 
L 134.475196 219.234816 
L 134.832325 217.10592 
L 135.189455 217.460736 
L 135.546585 216.396288 
L 135.903715 213.202944 
L 136.260844 215.686656 
L 136.617974 211.428864 
L 136.975104 214.267392 
L 137.332233 211.074048 
L 137.689363 212.138496 
L 138.046493 209.299968 
L 138.403623 211.074048 
L 138.760752 205.751808 
L 139.117882 204.332544 
L 139.475012 201.494016 
L 139.832141 202.558464 
L 140.189271 201.1392 
L 140.546401 200.429568 
L 140.903531 201.848832 
L 141.26066 206.816256 
L 141.61779 206.46144 
L 141.97492 207.171072 
L 142.332049 206.46144 
L 142.689179 207.525888 
L 143.046309 206.106624 
L 143.403439 203.977728 
L 143.760568 202.91328 
L 144.117698 206.816256 
L 145.189087 194.397696 
L 145.546217 195.107328 
L 145.903347 195.107328 
L 146.260476 193.333248 
L 146.617606 194.752512 
L 147.331866 193.333248 
L 147.688995 193.333248 
L 148.046125 193.688064 
L 148.403255 197.945856 
L 148.760384 199.719936 
L 149.117514 202.91328 
L 149.474644 204.332544 
L 149.831774 202.558464 
L 150.188903 202.91328 
L 150.546033 203.622912 
L 150.903163 202.558464 
L 151.260292 197.59104 
L 151.617422 198.655488 
L 151.974552 202.203648 
L 152.331682 196.526592 
L 152.688811 197.236224 
L 153.045941 198.300672 
L 153.403071 196.171776 
L 153.7602 197.59104 
L 154.11733 195.81696 
L 154.47446 200.429568 
L 154.83159 200.784384 
L 155.188719 199.010304 
L 155.545849 198.655488 
L 155.902979 199.719936 
L 156.260108 202.203648 
L 156.617238 199.36512 
L 156.974368 201.494016 
L 157.331498 202.203648 
L 157.688627 203.268096 
L 158.045757 205.396992 
L 158.402887 203.622912 
L 158.760016 205.042176 
L 159.117146 208.945152 
L 159.474276 202.558464 
L 159.831406 207.525888 
L 160.188535 208.945152 
L 160.545665 209.654784 
L 161.259924 208.23552 
L 161.617054 206.816256 
L 161.974184 211.074048 
L 162.331314 210.0096 
L 162.688443 206.816256 
L 163.045573 207.171072 
L 163.402703 202.203648 
L 163.759832 206.816256 
L 164.116962 200.074752 
L 164.474092 207.171072 
L 164.831222 202.91328 
L 165.188351 202.203648 
L 165.545481 197.945856 
L 165.902611 201.494016 
L 166.61687 198.300672 
L 166.974 205.042176 
L 167.33113 200.784384 
L 167.688259 201.494016 
L 168.045389 199.719936 
L 168.402519 199.719936 
L 168.759649 197.236224 
L 169.473908 197.945856 
L 169.831038 194.397696 
L 170.188167 192.978432 
L 170.545297 192.623616 
L 170.902427 192.978432 
L 171.259557 188.365824 
L 171.616686 188.72064 
L 171.973816 195.462144 
L 172.330946 192.2688 
L 172.688075 192.623616 
L 173.045205 192.623616 
L 173.402335 192.978432 
L 173.759465 194.04288 
L 174.116594 192.978432 
L 174.473724 193.333248 
L 174.830854 197.236224 
L 175.187983 196.881408 
L 175.545113 200.074752 
L 175.902243 200.429568 
L 176.259373 201.848832 
L 176.616502 204.68736 
L 176.973632 205.042176 
L 177.687891 207.880704 
L 178.045021 212.138496 
L 178.402151 210.719232 
L 178.759281 211.428864 
L 179.11641 212.848128 
L 179.47354 208.23552 
L 179.83067 215.686656 
L 180.187799 214.622208 
L 180.544929 211.428864 
L 180.902059 206.46144 
L 181.616318 203.268096 
L 181.973448 201.848832 
L 182.330578 194.752512 
L 182.687707 198.655488 
L 183.044837 196.526592 
L 183.401967 196.881408 
L 183.759097 195.462144 
L 184.116226 197.59104 
L 184.473356 196.881408 
L 184.830486 194.752512 
L 185.187615 196.881408 
L 185.544745 194.397696 
L 185.901875 201.1392 
L 186.616134 195.81696 
L 186.973264 198.655488 
L 187.330394 196.881408 
L 187.687523 200.074752 
L 188.044653 199.010304 
L 188.401783 200.429568 
L 188.758913 198.300672 
L 189.116042 199.010304 
L 189.473172 197.236224 
L 189.830302 197.236224 
L 190.187432 201.1392 
L 190.544561 199.719936 
L 190.901691 197.236224 
L 191.258821 198.300672 
L 191.61595 193.688064 
L 192.33021 188.365824 
L 192.68734 188.011008 
L 193.044469 189.430272 
L 193.401599 189.430272 
L 193.758729 191.204352 
L 194.115858 189.075456 
L 194.472988 185.882112 
L 194.830118 186.94656 
L 195.187248 194.397696 
L 195.544377 194.752512 
L 195.901507 195.462144 
L 196.258637 201.848832 
L 196.972896 204.332544 
L 197.330026 200.429568 
L 197.687156 202.203648 
L 198.044285 198.300672 
L 198.401415 197.236224 
L 198.758545 198.300672 
L 199.115674 198.300672 
L 199.472804 200.784384 
L 199.829934 198.300672 
L 200.187064 198.300672 
L 200.544193 195.107328 
L 200.901323 198.655488 
L 201.258453 198.655488 
L 201.615582 199.36512 
L 202.329842 196.526592 
L 202.686972 194.397696 
L 203.044101 194.04288 
L 203.401231 192.2688 
L 203.758361 195.107328 
L 204.11549 196.526592 
L 204.47262 193.688064 
L 204.82975 193.333248 
L 205.18688 194.397696 
L 205.544009 195.107328 
L 205.901139 194.04288 
L 206.258269 197.236224 
L 206.615398 193.688064 
L 206.972528 195.81696 
L 207.329658 190.49472 
L 207.686788 192.978432 
L 208.043917 191.204352 
L 208.401047 194.752512 
L 208.758177 190.849536 
L 209.115306 194.397696 
L 209.472436 191.913984 
L 209.829566 192.978432 
L 210.186696 192.2688 
L 210.543825 190.139904 
L 210.900955 193.333248 
L 211.258085 189.785088 
L 211.615214 194.397696 
L 211.972344 191.204352 
L 212.329474 191.204352 
L 212.686604 192.623616 
L 213.043733 192.978432 
L 213.400863 196.171776 
L 213.757993 191.913984 
L 214.115123 194.752512 
L 214.472252 190.139904 
L 214.829382 188.72064 
L 215.186512 184.817664 
L 215.543641 182.333952 
L 215.900771 183.043584 
L 216.257901 184.817664 
L 216.615031 181.62432 
L 216.97216 181.269504 
L 217.32929 180.559872 
L 217.68642 178.785792 
L 218.043549 178.430976 
L 218.400679 174.528 
L 218.757809 173.463552 
L 219.472068 179.140608 
L 219.829198 178.430976 
L 220.186328 179.140608 
L 220.543457 179.140608 
L 220.900587 175.947264 
L 221.257717 173.818368 
L 221.614847 168.496128 
L 221.971976 176.656896 
L 222.329106 169.560576 
L 222.686236 172.75392 
L 223.043365 172.399104 
L 223.400495 168.496128 
L 223.757625 166.012416 
L 224.114755 168.850944 
L 224.471884 170.625024 
L 224.829014 171.334656 
L 225.186144 170.270208 
L 225.543273 171.689472 
L 225.900403 166.722048 
L 226.257533 166.367232 
L 226.614663 162.819072 
L 227.328922 164.238336 
L 227.686052 164.593152 
L 228.043181 168.141312 
L 228.400311 165.302784 
L 228.757441 170.625024 
L 229.114571 167.786496 
L 229.4717 171.689472 
L 229.82883 166.367232 
L 230.18596 167.43168 
L 230.543089 169.915392 
L 230.900219 169.560576 
L 231.257349 170.97984 
L 231.614479 175.237632 
L 231.971608 177.366528 
L 232.328738 178.07616 
L 232.685868 179.140608 
L 233.042997 177.366528 
L 233.400127 178.785792 
L 233.757257 172.75392 
L 234.114387 173.818368 
L 234.471516 173.463552 
L 234.828646 172.044288 
L 235.185776 176.656896 
L 235.542906 173.108736 
L 235.900035 172.75392 
L 236.257165 169.915392 
L 236.614295 173.108736 
L 236.971424 172.399104 
L 237.328554 176.656896 
L 237.685684 172.75392 
L 238.042814 177.721344 
L 238.399943 172.75392 
L 239.114203 176.656896 
L 239.471332 173.463552 
L 239.828462 173.463552 
L 240.185592 169.560576 
L 240.542722 168.496128 
L 240.899851 164.593152 
L 241.256981 166.012416 
L 241.614111 166.012416 
L 241.97124 166.722048 
L 242.32837 163.88352 
L 243.04263 169.915392 
L 243.399759 170.270208 
L 243.756889 172.044288 
L 244.114019 168.141312 
L 244.828278 167.43168 
L 245.185408 168.496128 
L 245.542538 168.496128 
L 245.899667 173.463552 
L 246.256797 173.463552 
L 246.613927 177.721344 
L 246.971056 175.592448 
L 247.328186 177.366528 
L 247.685316 174.528 
L 248.042446 176.30208 
L 248.399575 172.044288 
L 248.756705 172.75392 
L 249.113835 174.528 
L 249.470964 167.43168 
L 249.828094 169.560576 
L 250.185224 170.270208 
L 250.542354 167.076864 
L 250.899483 170.97984 
L 251.256613 171.334656 
L 251.613743 176.30208 
L 251.970872 173.818368 
L 252.685132 171.334656 
L 253.042262 173.108736 
L 253.399391 171.334656 
L 253.756521 175.592448 
L 254.113651 173.818368 
L 254.47078 177.721344 
L 254.82791 176.656896 
L 255.18504 174.882816 
L 255.54217 175.947264 
L 255.899299 174.173184 
L 256.256429 174.882816 
L 256.613559 173.818368 
L 256.970688 175.237632 
L 257.327818 174.528 
L 257.684948 178.785792 
L 258.042078 180.205056 
L 258.399207 185.882112 
L 258.756337 181.979136 
L 259.113467 183.3984 
L 259.470597 183.753216 
L 259.827726 181.979136 
L 260.184856 185.527296 
L 260.541986 181.269504 
L 261.613375 180.205056 
L 261.970505 180.914688 
L 262.327634 179.140608 
L 263.041894 181.62432 
L 263.756153 176.656896 
L 264.113283 181.269504 
L 264.470413 179.85024 
L 264.827542 181.979136 
L 265.184672 185.17248 
L 265.541802 186.236928 
L 266.256061 194.04288 
L 266.613191 191.204352 
L 266.970321 194.397696 
L 267.32745 193.333248 
L 267.68458 194.397696 
L 268.04171 194.752512 
L 268.755969 201.848832 
L 269.113099 202.203648 
L 269.470229 204.68736 
L 269.827358 203.268096 
L 270.184488 205.396992 
L 270.541618 206.106624 
L 270.898747 206.106624 
L 271.255877 202.203648 
L 271.613007 202.558464 
L 271.970137 205.396992 
L 272.327266 197.945856 
L 273.041526 202.203648 
L 273.398655 201.494016 
L 273.755785 205.042176 
L 274.112915 203.622912 
L 274.470045 208.945152 
L 274.827174 210.0096 
L 275.184304 212.138496 
L 275.541434 207.525888 
L 276.255693 202.91328 
L 276.969953 197.236224 
L 277.327082 197.945856 
L 277.684212 202.91328 
L 278.041342 205.042176 
L 278.398471 205.396992 
L 278.755601 205.396992 
L 279.112731 213.55776 
L 279.469861 208.590336 
L 279.82699 210.0096 
L 280.18412 212.138496 
L 280.54125 207.171072 
L 280.898379 209.654784 
L 281.255509 203.268096 
L 281.612639 207.880704 
L 281.969769 207.880704 
L 282.326898 207.171072 
L 282.684028 210.0096 
L 283.041158 205.751808 
L 283.398288 206.816256 
L 283.755417 206.816256 
L 284.112547 203.977728 
L 284.469677 205.751808 
L 284.826806 206.46144 
L 285.183936 203.268096 
L 285.541066 206.816256 
L 285.898196 205.396992 
L 286.255325 203.268096 
L 286.612455 202.91328 
L 286.969585 197.945856 
L 287.326714 198.655488 
L 287.683844 194.397696 
L 288.040974 198.300672 
L 288.398104 196.526592 
L 288.755233 193.333248 
L 289.112363 193.688064 
L 289.826622 192.978432 
L 290.183752 195.462144 
L 290.540882 191.559168 
L 290.898012 190.139904 
L 291.612271 185.527296 
L 291.969401 189.075456 
L 292.32653 186.94656 
L 292.68366 189.075456 
L 293.04079 182.333952 
L 293.39792 185.527296 
L 294.112179 180.559872 
L 294.826438 183.3984 
L 295.183568 179.495424 
L 295.540698 180.559872 
L 295.897828 177.721344 
L 296.254957 178.430976 
L 296.612087 178.07616 
L 296.969217 175.237632 
L 297.326346 173.818368 
L 297.683476 176.656896 
L 298.040606 174.882816 
L 298.397736 178.07616 
L 298.754865 174.173184 
L 299.111995 174.173184 
L 299.469125 174.528 
L 299.826254 171.689472 
L 300.183384 174.882816 
L 300.540514 174.528 
L 300.897644 175.237632 
L 301.254773 181.62432 
L 301.611903 181.62432 
L 301.969033 184.108032 
L 302.326162 181.62432 
L 302.683292 182.688768 
L 303.040422 174.173184 
L 303.397552 175.237632 
L 303.754681 174.173184 
L 304.111811 174.173184 
L 304.468941 172.75392 
L 304.826071 169.915392 
L 305.1832 168.141312 
L 305.54033 167.076864 
L 305.89746 165.302784 
L 306.254589 161.399808 
L 306.611719 163.528704 
L 307.325979 156.7872 
L 307.683108 156.432384 
L 308.040238 152.529408 
L 308.397368 153.948672 
L 308.754497 152.174592 
L 309.111627 148.626432 
L 309.468757 147.9168 
L 309.825887 147.9168 
L 310.183016 145.078272 
L 310.540146 144.013824 
L 310.897276 147.561984 
L 311.254405 144.723456 
L 311.611535 147.207168 
L 311.968665 144.723456 
L 312.682924 145.433088 
L 313.040054 141.530112 
L 313.397184 146.497536 
L 313.754313 140.82048 
L 314.111443 144.36864 
L 314.468573 140.465664 
L 315.539962 132.304896 
L 315.897092 127.692288 
L 316.254221 120.950784 
L 316.611351 123.07968 
L 316.968481 119.53152 
L 317.68274 107.11296 
L 318.03987 106.048512 
L 318.397 100.726272 
L 318.754129 97.532928 
L 319.111259 96.823296 
L 319.825519 90.436608 
L 320.182648 89.017344 
L 320.539778 90.436608 
L 320.896908 85.824 
L 321.254037 89.726976 
L 321.611167 86.533632 
L 321.968297 90.791424 
L 322.325427 91.14624 
L 322.682556 91.855872 
L 323.039686 100.01664 
L 323.396816 97.887744 
L 323.753945 102.500352 
L 324.111075 108.88704 
L 324.468205 107.467776 
L 324.825335 114.564096 
L 325.182464 119.176704 
L 325.539594 117.402624 
L 325.896724 118.467072 
L 326.610983 130.530816 
L 326.968113 135.143424 
L 327.325243 144.723456 
L 327.682372 148.626432 
L 328.039502 154.658304 
L 328.396632 157.142016 
L 328.753762 167.786496 
L 329.468021 174.173184 
L 330.18228 179.140608 
L 330.53941 184.108032 
L 330.89654 185.527296 
L 331.25367 191.559168 
L 331.610799 201.1392 
L 331.967929 204.68736 
L 332.325059 206.816256 
L 332.682188 209.654784 
L 333.039318 216.396288 
L 334.110707 230.234112 
L 335.182096 238.39488 
L 335.539226 240.16896 
L 335.896356 240.16896 
L 336.253486 240.878592 
L 336.610615 244.781568 
L 336.967745 240.523776 
L 337.324875 239.104512 
L 337.682004 241.588224 
L 338.039134 239.104512 
L 338.396264 238.040064 
L 338.753394 235.556352 
L 339.110523 234.84672 
L 339.467653 234.491904 
L 339.824783 235.556352 
L 340.181912 233.427456 
L 340.539042 233.427456 
L 340.896172 230.588928 
L 341.253302 226.685952 
L 341.610431 230.588928 
L 341.967561 228.460032 
L 342.324691 228.814848 
L 342.68182 229.879296 
L 343.03895 224.20224 
L 343.39608 224.557056 
L 343.75321 222.782976 
L 344.110339 226.331136 
L 344.467469 224.557056 
L 344.824599 224.911872 
L 345.538858 222.42816 
L 345.895988 217.815552 
L 346.253118 218.525184 
L 346.610247 216.041472 
L 346.967377 216.396288 
L 347.324507 217.815552 
L 347.681636 211.428864 
L 348.038766 213.202944 
L 348.753026 207.171072 
L 349.110155 208.590336 
L 349.467285 204.68736 
L 349.824415 205.042176 
L 350.181544 206.106624 
L 350.538674 204.68736 
L 350.895804 207.525888 
L 351.252934 207.880704 
L 351.610063 210.0096 
L 351.967193 208.945152 
L 352.324323 209.299968 
L 352.681453 204.332544 
L 353.038582 206.816256 
L 353.395712 203.268096 
L 353.752842 207.525888 
L 354.109971 207.171072 
L 354.467101 202.203648 
L 354.824231 202.558464 
L 355.181361 206.816256 
L 355.53849 208.23552 
L 355.89562 206.46144 
L 356.25275 207.171072 
L 356.609879 206.816256 
L 356.967009 208.590336 
L 357.324139 206.106624 
L 357.681269 207.525888 
L 358.038398 206.816256 
L 358.395528 207.525888 
L 358.752658 205.396992 
L 359.109787 208.23552 
L 359.466917 209.654784 
L 359.824047 212.493312 
L 360.181177 208.945152 
L 360.538306 209.299968 
L 360.895436 206.46144 
L 361.252566 210.364416 
L 361.609695 210.364416 
L 361.966825 211.78368 
L 362.323955 205.751808 
L 362.681085 207.171072 
L 363.038214 210.364416 
L 363.395344 212.493312 
L 363.752474 212.848128 
L 364.109603 214.977024 
L 364.466733 211.074048 
L 364.823863 215.33184 
L 365.180993 211.78368 
L 365.538122 213.912576 
L 365.895252 218.170368 
L 366.252382 217.10592 
L 366.609511 217.460736 
L 366.966641 216.396288 
L 367.323771 217.460736 
L 367.680901 216.396288 
L 368.03803 216.396288 
L 368.39516 220.299264 
L 368.75229 217.10592 
L 369.109419 221.363712 
L 369.823679 224.557056 
L 370.537938 224.557056 
L 370.895068 225.266688 
L 371.252198 229.52448 
L 371.609327 222.42816 
L 371.966457 225.621504 
L 372.323587 221.008896 
L 372.680717 222.42816 
L 373.037846 222.782976 
L 373.394976 225.266688 
L 373.752106 226.331136 
L 374.109236 227.7504 
L 374.466365 227.7504 
L 374.823495 226.685952 
L 375.180625 228.814848 
L 375.894884 225.97632 
L 376.252014 229.52448 
L 376.609144 230.234112 
L 376.966273 227.7504 
L 377.323403 229.879296 
L 377.680533 226.331136 
L 378.037662 228.460032 
L 378.394792 226.685952 
L 378.751922 223.847424 
L 379.109052 224.20224 
L 379.466181 219.944448 
L 379.823311 218.525184 
L 380.180441 217.815552 
L 380.53757 221.718528 
L 380.8947 222.073344 
L 381.25183 220.65408 
L 381.60896 221.008896 
L 381.966089 217.460736 
L 382.323219 216.751104 
L 383.037478 221.008896 
L 383.394608 217.10592 
L 383.751738 218.170368 
L 384.108868 217.815552 
L 384.465997 216.396288 
L 385.180257 219.234816 
L 385.894516 217.815552 
L 386.608776 221.718528 
L 386.965905 216.751104 
L 387.323035 216.396288 
L 387.680165 215.686656 
L 388.037294 210.364416 
L 388.394424 212.848128 
L 388.751554 209.299968 
L 389.108684 208.945152 
L 389.465813 208.23552 
L 389.822943 205.042176 
L 390.180073 205.042176 
L 390.894332 207.880704 
L 391.251462 205.751808 
L 391.608592 206.816256 
L 391.965721 207.525888 
L 392.322851 205.396992 
L 392.679981 206.46144 
L 393.03711 207.171072 
L 393.39424 207.525888 
L 393.75137 211.78368 
L 394.1085 210.0096 
L 394.465629 206.816256 
L 394.822759 209.299968 
L 395.179889 208.23552 
L 395.894148 204.332544 
L 396.251278 203.622912 
L 396.965537 206.816256 
L 397.322667 204.68736 
L 397.679797 210.719232 
L 398.394056 208.23552 
L 398.751186 210.364416 
L 399.108316 206.816256 
L 399.465445 205.751808 
L 399.822575 205.751808 
L 400.179705 210.0096 
L 400.536835 206.816256 
L 400.893964 205.751808 
L 401.608224 217.460736 
L 401.965353 213.202944 
L 402.322483 214.622208 
L 402.679613 217.10592 
L 403.036743 215.686656 
L 403.393872 214.977024 
L 403.751002 213.55776 
L 404.108132 212.848128 
L 404.465261 216.751104 
L 404.822391 210.719232 
L 405.179521 209.654784 
L 405.536651 211.428864 
L 405.89378 210.719232 
L 406.60804 207.171072 
L 406.965169 206.46144 
L 407.322299 206.816256 
L 407.679429 207.880704 
L 408.393688 211.074048 
L 408.750818 207.880704 
L 409.107948 208.945152 
L 409.465077 208.23552 
L 409.822207 207.171072 
L 410.179337 207.880704 
L 410.536467 207.525888 
L 410.893596 210.719232 
L 411.250726 211.428864 
L 411.607856 211.074048 
L 411.964985 211.074048 
L 412.322115 213.55776 
L 412.679245 212.848128 
L 413.036375 211.428864 
L 413.393504 211.78368 
L 413.750634 210.719232 
L 414.107764 210.0096 
L 414.464893 210.364416 
L 414.822023 209.299968 
L 414.822023 209.299968 
" style="fill:none;stroke:#ff7f0e;stroke-linecap:square;stroke-width:1.5;"/>
   </g>
   <g id="patch_3">
    <path d="M 57.6 307.584 
L 57.6 41.472 
" style="fill:none;stroke:#000000;stroke-linecap:square;stroke-linejoin:miter;stroke-width:0.8;"/>
   </g>
   <g id="patch_4">
    <path d="M 414.72 307.584 
L 414.72 41.472 
" style="fill:none;stroke:#000000;stroke-linecap:square;stroke-linejoin:miter;stroke-width:0.8;"/>
   </g>
   <g id="patch_5">
    <path d="M 57.6 307.584 
L 414.72 307.584 
" style="fill:none;stroke:#000000;stroke-linecap:square;stroke-linejoin:miter;stroke-width:0.8;"/>
   </g>
   <g id="patch_6">
    <path d="M 57.6 41.472 
L 414.72 41.472 
" style="fill:none;stroke:#000000;stroke-linecap:square;stroke-linejoin:miter;stroke-width:0.8;"/>
   </g>
   <g id="text_20">
    <!-- Object was Pulled -->
    <defs>
     <path d="M 39.40625 66.21875 
Q 28.65625 66.21875 22.328125 58.203125 
Q 16.015625 50.203125 16.015625 36.375 
Q 16.015625 22.609375 22.328125 14.59375 
Q 28.65625 6.59375 39.40625 6.59375 
Q 50.140625 6.59375 56.421875 14.59375 
Q 62.703125 22.609375 62.703125 36.375 
Q 62.703125 50.203125 56.421875 58.203125 
Q 50.140625 66.21875 39.40625 66.21875 
z
M 39.40625 74.21875 
Q 54.734375 74.21875 63.90625 63.9375 
Q 73.09375 53.65625 73.09375 36.375 
Q 73.09375 19.140625 63.90625 8.859375 
Q 54.734375 -1.421875 39.40625 -1.421875 
Q 24.03125 -1.421875 14.8125 8.828125 
Q 5.609375 19.09375 5.609375 36.375 
Q 5.609375 53.65625 14.8125 63.9375 
Q 24.03125 74.21875 39.40625 74.21875 
z
" id="DejaVuSans-4f"/>
     <path d="M 48.6875 27.296875 
Q 48.6875 37.203125 44.609375 42.84375 
Q 40.53125 48.484375 33.40625 48.484375 
Q 26.265625 48.484375 22.1875 42.84375 
Q 18.109375 37.203125 18.109375 27.296875 
Q 18.109375 17.390625 22.1875 11.75 
Q 26.265625 6.109375 33.40625 6.109375 
Q 40.53125 6.109375 44.609375 11.75 
Q 48.6875 17.390625 48.6875 27.296875 
z
M 18.109375 46.390625 
Q 20.953125 51.265625 25.265625 53.625 
Q 29.59375 56 35.59375 56 
Q 45.5625 56 51.78125 48.09375 
Q 58.015625 40.1875 58.015625 27.296875 
Q 58.015625 14.40625 51.78125 6.484375 
Q 45.5625 -1.421875 35.59375 -1.421875 
Q 29.59375 -1.421875 25.265625 0.953125 
Q 20.953125 3.328125 18.109375 8.203125 
L 18.109375 0 
L 9.078125 0 
L 9.078125 75.984375 
L 18.109375 75.984375 
z
" id="DejaVuSans-62"/>
     <path d="M 9.421875 54.6875 
L 18.40625 54.6875 
L 18.40625 -0.984375 
Q 18.40625 -11.421875 14.421875 -16.109375 
Q 10.453125 -20.796875 1.609375 -20.796875 
L -1.8125 -20.796875 
L -1.8125 -13.1875 
L 0.59375 -13.1875 
Q 5.71875 -13.1875 7.5625 -10.8125 
Q 9.421875 -8.453125 9.421875 -0.984375 
z
M 9.421875 75.984375 
L 18.40625 75.984375 
L 18.40625 64.59375 
L 9.421875 64.59375 
z
" id="DejaVuSans-6a"/>
     <path d="M 48.78125 52.59375 
L 48.78125 44.1875 
Q 44.96875 46.296875 41.140625 47.34375 
Q 37.3125 48.390625 33.40625 48.390625 
Q 24.65625 48.390625 19.8125 42.84375 
Q 14.984375 37.3125 14.984375 27.296875 
Q 14.984375 17.28125 19.8125 11.734375 
Q 24.65625 6.203125 33.40625 6.203125 
Q 37.3125 6.203125 41.140625 7.25 
Q 44.96875 8.296875 48.78125 10.40625 
L 48.78125 2.09375 
Q 45.015625 0.34375 40.984375 -0.53125 
Q 36.96875 -1.421875 32.421875 -1.421875 
Q 20.0625 -1.421875 12.78125 6.34375 
Q 5.515625 14.109375 5.515625 27.296875 
Q 5.515625 40.671875 12.859375 48.328125 
Q 20.21875 56 33.015625 56 
Q 37.15625 56 41.109375 55.140625 
Q 45.0625 54.296875 48.78125 52.59375 
z
" id="DejaVuSans-63"/>
     <path d="M 19.671875 64.796875 
L 19.671875 37.40625 
L 32.078125 37.40625 
Q 38.96875 37.40625 42.71875 40.96875 
Q 46.484375 44.53125 46.484375 51.125 
Q 46.484375 57.671875 42.71875 61.234375 
Q 38.96875 64.796875 32.078125 64.796875 
z
M 9.8125 72.90625 
L 32.078125 72.90625 
Q 44.34375 72.90625 50.609375 67.359375 
Q 56.890625 61.8125 56.890625 51.125 
Q 56.890625 40.328125 50.609375 34.8125 
Q 44.34375 29.296875 32.078125 29.296875 
L 19.671875 29.296875 
L 19.671875 0 
L 9.8125 0 
z
" id="DejaVuSans-50"/>
     <path d="M 9.421875 75.984375 
L 18.40625 75.984375 
L 18.40625 0 
L 9.421875 0 
z
" id="DejaVuSans-6c"/>
    </defs>
    <g transform="translate(182.840625 35.472)scale(0.12 -0.12)">
     <use xlink:href="#DejaVuSans-4f"/>
     <use x="78.710938" xlink:href="#DejaVuSans-62"/>
     <use x="142.1875" xlink:href="#DejaVuSans-6a"/>
     <use x="169.970703" xlink:href="#DejaVuSans-65"/>
     <use x="231.494141" xlink:href="#DejaVuSans-63"/>
     <use x="286.474609" xlink:href="#DejaVuSans-74"/>
     <use x="325.683594" xlink:href="#DejaVuSans-20"/>
     <use x="357.470703" xlink:href="#DejaVuSans-77"/>
     <use x="439.257812" xlink:href="#DejaVuSans-61"/>
     <use x="500.537109" xlink:href="#DejaVuSans-73"/>
     <use x="552.636719" xlink:href="#DejaVuSans-20"/>
     <use x="584.423828" xlink:href="#DejaVuSans-50"/>
     <use x="644.710938" xlink:href="#DejaVuSans-75"/>
     <use x="708.089844" xlink:href="#DejaVuSans-6c"/>
     <use x="735.873047" xlink:href="#DejaVuSans-6c"/>
     <use x="763.65625" xlink:href="#DejaVuSans-65"/>
     <use x="825.179688" xlink:href="#DejaVuSans-64"/>
    </g>
   </g>
   <g id="legend_1">
    <g id="patch_7">
     <path d="M 299.249687 302.584 
L 407.72 302.584 
Q 409.72 302.584 409.72 300.584 
L 409.72 272.22775 
Q 409.72 270.22775 407.72 270.22775 
L 299.249687 270.22775 
Q 297.249687 270.22775 297.249687 272.22775 
L 297.249687 300.584 
Q 297.249687 302.584 299.249687 302.584 
z
" style="fill:#ffffff;opacity:0.8;stroke:#cccccc;stroke-linejoin:miter;"/>
    </g>
    <g id="line2d_20">
     <path d="M 301.249687 278.326187 
L 321.249687 278.326187 
" style="fill:none;stroke:#1f77b4;stroke-linecap:square;stroke-width:1.5;"/>
    </g>
    <g id="line2d_21"/>
    <g id="text_21">
     <!-- Unfiltered Data -->
     <defs>
      <path d="M 8.6875 72.90625 
L 18.609375 72.90625 
L 18.609375 28.609375 
Q 18.609375 16.890625 22.84375 11.734375 
Q 27.09375 6.59375 36.625 6.59375 
Q 46.09375 6.59375 50.34375 11.734375 
Q 54.59375 16.890625 54.59375 28.609375 
L 54.59375 72.90625 
L 64.5 72.90625 
L 64.5 27.390625 
Q 64.5 13.140625 57.4375 5.859375 
Q 50.390625 -1.421875 36.625 -1.421875 
Q 22.796875 -1.421875 15.734375 5.859375 
Q 8.6875 13.140625 8.6875 27.390625 
z
" id="DejaVuSans-55"/>
      <path d="M 37.109375 75.984375 
L 37.109375 68.5 
L 28.515625 68.5 
Q 23.6875 68.5 21.796875 66.546875 
Q 19.921875 64.59375 19.921875 59.515625 
L 19.921875 54.6875 
L 34.71875 54.6875 
L 34.71875 47.703125 
L 19.921875 47.703125 
L 19.921875 0 
L 10.890625 0 
L 10.890625 47.703125 
L 2.296875 47.703125 
L 2.296875 54.6875 
L 10.890625 54.6875 
L 10.890625 58.5 
Q 10.890625 67.625 15.140625 71.796875 
Q 19.390625 75.984375 28.609375 75.984375 
z
" id="DejaVuSans-66"/>
      <path d="M 41.109375 46.296875 
Q 39.59375 47.171875 37.8125 47.578125 
Q 36.03125 48 33.890625 48 
Q 26.265625 48 22.1875 43.046875 
Q 18.109375 38.09375 18.109375 28.8125 
L 18.109375 0 
L 9.078125 0 
L 9.078125 54.6875 
L 18.109375 54.6875 
L 18.109375 46.1875 
Q 20.953125 51.171875 25.484375 53.578125 
Q 30.03125 56 36.53125 56 
Q 37.453125 56 38.578125 55.875 
Q 39.703125 55.765625 41.0625 55.515625 
z
" id="DejaVuSans-72"/>
      <path d="M 19.671875 64.796875 
L 19.671875 8.109375 
L 31.59375 8.109375 
Q 46.6875 8.109375 53.6875 14.9375 
Q 60.6875 21.78125 60.6875 36.53125 
Q 60.6875 51.171875 53.6875 57.984375 
Q 46.6875 64.796875 31.59375 64.796875 
z
M 9.8125 72.90625 
L 30.078125 72.90625 
Q 51.265625 72.90625 61.171875 64.09375 
Q 71.09375 55.28125 71.09375 36.53125 
Q 71.09375 17.671875 61.125 8.828125 
Q 51.171875 0 30.078125 0 
L 9.8125 0 
z
" id="DejaVuSans-44"/>
     </defs>
     <g transform="translate(329.249687 281.826187)scale(0.1 -0.1)">
      <use xlink:href="#DejaVuSans-55"/>
      <use x="73.193359" xlink:href="#DejaVuSans-6e"/>
      <use x="136.572266" xlink:href="#DejaVuSans-66"/>
      <use x="171.777344" xlink:href="#DejaVuSans-69"/>
      <use x="199.560547" xlink:href="#DejaVuSans-6c"/>
      <use x="227.34375" xlink:href="#DejaVuSans-74"/>
      <use x="266.552734" xlink:href="#DejaVuSans-65"/>
      <use x="328.076172" xlink:href="#DejaVuSans-72"/>
      <use x="369.158203" xlink:href="#DejaVuSans-65"/>
      <use x="430.681641" xlink:href="#DejaVuSans-64"/>
      <use x="494.158203" xlink:href="#DejaVuSans-20"/>
      <use x="525.945312" xlink:href="#DejaVuSans-44"/>
      <use x="602.947266" xlink:href="#DejaVuSans-61"/>
      <use x="664.226562" xlink:href="#DejaVuSans-74"/>
      <use x="703.435547" xlink:href="#DejaVuSans-61"/>
     </g>
    </g>
    <g id="line2d_22">
     <path d="M 301.249687 293.004312 
L 321.249687 293.004312 
" style="fill:none;stroke:#ff7f0e;stroke-linecap:square;stroke-width:1.5;"/>
    </g>
    <g id="line2d_23"/>
    <g id="text_22">
     <!-- Filtered Data -->
     <defs>
      <path d="M 9.8125 72.90625 
L 51.703125 72.90625 
L 51.703125 64.59375 
L 19.671875 64.59375 
L 19.671875 43.109375 
L 48.578125 43.109375 
L 48.578125 34.8125 
L 19.671875 34.8125 
L 19.671875 0 
L 9.8125 0 
z
" id="DejaVuSans-46"/>
     </defs>
     <g transform="translate(329.249687 296.504312)scale(0.1 -0.1)">
      <use xlink:href="#DejaVuSans-46"/>
      <use x="57.410156" xlink:href="#DejaVuSans-69"/>
      <use x="85.193359" xlink:href="#DejaVuSans-6c"/>
      <use x="112.976562" xlink:href="#DejaVuSans-74"/>
      <use x="152.185547" xlink:href="#DejaVuSans-65"/>
      <use x="213.708984" xlink:href="#DejaVuSans-72"/>
      <use x="254.791016" xlink:href="#DejaVuSans-65"/>
      <use x="316.314453" xlink:href="#DejaVuSans-64"/>
      <use x="379.791016" xlink:href="#DejaVuSans-20"/>
      <use x="411.578125" xlink:href="#DejaVuSans-44"/>
      <use x="488.580078" xlink:href="#DejaVuSans-61"/>
      <use x="549.859375" xlink:href="#DejaVuSans-74"/>
      <use x="589.068359" xlink:href="#DejaVuSans-61"/>
     </g>
    </g>
   </g>
  </g>
 </g>
 <defs>
  <clipPath id="p237417c9c2">
   <rect height="266.112" width="357.12" x="57.6" y="41.472"/>
  </clipPath>
 </defs>
</svg>
