<?xml version="1.0" encoding="utf-8" standalone="no"?>
<!DOCTYPE svg PUBLIC "-//W3C//DTD SVG 1.1//EN"
  "http://www.w3.org/Graphics/SVG/1.1/DTD/svg11.dtd">
<!-- Created with matplotlib (http://matplotlib.org/) -->
<svg height="345.6pt" version="1.1" viewBox="0 0 460.8 345.6" width="460.8pt" xmlns="http://www.w3.org/2000/svg" xmlns:xlink="http://www.w3.org/1999/xlink">
 <defs>
  <style type="text/css">
*{stroke-linecap:butt;stroke-linejoin:round;}
  </style>
 </defs>
 <g id="figure_1">
  <g id="patch_1">
   <path d="M 0 345.6 
L 460.8 345.6 
L 460.8 0 
L 0 0 
z
" style="fill:#ffffff;"/>
  </g>
  <g id="axes_1">
   <g id="patch_2">
    <path d="M 57.6 307.584 
L 414.72 307.584 
L 414.72 41.472 
L 57.6 41.472 
z
" style="fill:#ffffff;"/>
   </g>
   <g id="matplotlib.axis_1">
    <g id="xtick_1">
     <g id="line2d_1">
      <defs>
       <path d="M 0 0 
L 0 3.5 
" id="m28588f8c44" style="stroke:#000000;stroke-width:0.8;"/>
      </defs>
      <g>
       <use style="stroke:#000000;stroke-width:0.8;" x="57.6" xlink:href="#m28588f8c44" y="307.584"/>
      </g>
     </g>
     <g id="text_1">
      <!-- 48.50 -->
      <defs>
       <path d="M 37.796875 64.3125 
L 12.890625 25.390625 
L 37.796875 25.390625 
z
M 35.203125 72.90625 
L 47.609375 72.90625 
L 47.609375 25.390625 
L 58.015625 25.390625 
L 58.015625 17.1875 
L 47.609375 17.1875 
L 47.609375 0 
L 37.796875 0 
L 37.796875 17.1875 
L 4.890625 17.1875 
L 4.890625 26.703125 
z
" id="DejaVuSans-34"/>
       <path d="M 31.78125 34.625 
Q 24.75 34.625 20.71875 30.859375 
Q 16.703125 27.09375 16.703125 20.515625 
Q 16.703125 13.921875 20.71875 10.15625 
Q 24.75 6.390625 31.78125 6.390625 
Q 38.8125 6.390625 42.859375 10.171875 
Q 46.921875 13.96875 46.921875 20.515625 
Q 46.921875 27.09375 42.890625 30.859375 
Q 38.875 34.625 31.78125 34.625 
z
M 21.921875 38.8125 
Q 15.578125 40.375 12.03125 44.71875 
Q 8.5 49.078125 8.5 55.328125 
Q 8.5 64.0625 14.71875 69.140625 
Q 20.953125 74.21875 31.78125 74.21875 
Q 42.671875 74.21875 48.875 69.140625 
Q 55.078125 64.0625 55.078125 55.328125 
Q 55.078125 49.078125 51.53125 44.71875 
Q 48 40.375 41.703125 38.8125 
Q 48.828125 37.15625 52.796875 32.3125 
Q 56.78125 27.484375 56.78125 20.515625 
Q 56.78125 9.90625 50.3125 4.234375 
Q 43.84375 -1.421875 31.78125 -1.421875 
Q 19.734375 -1.421875 13.25 4.234375 
Q 6.78125 9.90625 6.78125 20.515625 
Q 6.78125 27.484375 10.78125 32.3125 
Q 14.796875 37.15625 21.921875 38.8125 
z
M 18.3125 54.390625 
Q 18.3125 48.734375 21.84375 45.5625 
Q 25.390625 42.390625 31.78125 42.390625 
Q 38.140625 42.390625 41.71875 45.5625 
Q 45.3125 48.734375 45.3125 54.390625 
Q 45.3125 60.0625 41.71875 63.234375 
Q 38.140625 66.40625 31.78125 66.40625 
Q 25.390625 66.40625 21.84375 63.234375 
Q 18.3125 60.0625 18.3125 54.390625 
z
" id="DejaVuSans-38"/>
       <path d="M 10.6875 12.40625 
L 21 12.40625 
L 21 0 
L 10.6875 0 
z
" id="DejaVuSans-2e"/>
       <path d="M 10.796875 72.90625 
L 49.515625 72.90625 
L 49.515625 64.59375 
L 19.828125 64.59375 
L 19.828125 46.734375 
Q 21.96875 47.46875 24.109375 47.828125 
Q 26.265625 48.1875 28.421875 48.1875 
Q 40.625 48.1875 47.75 41.5 
Q 54.890625 34.8125 54.890625 23.390625 
Q 54.890625 11.625 47.5625 5.09375 
Q 40.234375 -1.421875 26.90625 -1.421875 
Q 22.3125 -1.421875 17.546875 -0.640625 
Q 12.796875 0.140625 7.71875 1.703125 
L 7.71875 11.625 
Q 12.109375 9.234375 16.796875 8.0625 
Q 21.484375 6.890625 26.703125 6.890625 
Q 35.15625 6.890625 40.078125 11.328125 
Q 45.015625 15.765625 45.015625 23.390625 
Q 45.015625 31 40.078125 35.4375 
Q 35.15625 39.890625 26.703125 39.890625 
Q 22.75 39.890625 18.8125 39.015625 
Q 14.890625 38.140625 10.796875 36.28125 
z
" id="DejaVuSans-35"/>
       <path d="M 31.78125 66.40625 
Q 24.171875 66.40625 20.328125 58.90625 
Q 16.5 51.421875 16.5 36.375 
Q 16.5 21.390625 20.328125 13.890625 
Q 24.171875 6.390625 31.78125 6.390625 
Q 39.453125 6.390625 43.28125 13.890625 
Q 47.125 21.390625 47.125 36.375 
Q 47.125 51.421875 43.28125 58.90625 
Q 39.453125 66.40625 31.78125 66.40625 
z
M 31.78125 74.21875 
Q 44.046875 74.21875 50.515625 64.515625 
Q 56.984375 54.828125 56.984375 36.375 
Q 56.984375 17.96875 50.515625 8.265625 
Q 44.046875 -1.421875 31.78125 -1.421875 
Q 19.53125 -1.421875 13.0625 8.265625 
Q 6.59375 17.96875 6.59375 36.375 
Q 6.59375 54.828125 13.0625 64.515625 
Q 19.53125 74.21875 31.78125 74.21875 
z
" id="DejaVuSans-30"/>
      </defs>
      <g transform="translate(43.285938 322.182437)scale(0.1 -0.1)">
       <use xlink:href="#DejaVuSans-34"/>
       <use x="63.623047" xlink:href="#DejaVuSans-38"/>
       <use x="127.246094" xlink:href="#DejaVuSans-2e"/>
       <use x="159.033203" xlink:href="#DejaVuSans-35"/>
       <use x="222.65625" xlink:href="#DejaVuSans-30"/>
      </g>
     </g>
    </g>
    <g id="xtick_2">
     <g id="line2d_2">
      <g>
       <use style="stroke:#000000;stroke-width:0.8;" x="102.24" xlink:href="#m28588f8c44" y="307.584"/>
      </g>
     </g>
     <g id="text_2">
      <!-- 48.75 -->
      <defs>
       <path d="M 8.203125 72.90625 
L 55.078125 72.90625 
L 55.078125 68.703125 
L 28.609375 0 
L 18.3125 0 
L 43.21875 64.59375 
L 8.203125 64.59375 
z
" id="DejaVuSans-37"/>
      </defs>
      <g transform="translate(87.925937 322.182437)scale(0.1 -0.1)">
       <use xlink:href="#DejaVuSans-34"/>
       <use x="63.623047" xlink:href="#DejaVuSans-38"/>
       <use x="127.246094" xlink:href="#DejaVuSans-2e"/>
       <use x="159.033203" xlink:href="#DejaVuSans-37"/>
       <use x="222.65625" xlink:href="#DejaVuSans-35"/>
      </g>
     </g>
    </g>
    <g id="xtick_3">
     <g id="line2d_3">
      <g>
       <use style="stroke:#000000;stroke-width:0.8;" x="146.88" xlink:href="#m28588f8c44" y="307.584"/>
      </g>
     </g>
     <g id="text_3">
      <!-- 49.00 -->
      <defs>
       <path d="M 10.984375 1.515625 
L 10.984375 10.5 
Q 14.703125 8.734375 18.5 7.8125 
Q 22.3125 6.890625 25.984375 6.890625 
Q 35.75 6.890625 40.890625 13.453125 
Q 46.046875 20.015625 46.78125 33.40625 
Q 43.953125 29.203125 39.59375 26.953125 
Q 35.25 24.703125 29.984375 24.703125 
Q 19.046875 24.703125 12.671875 31.3125 
Q 6.296875 37.9375 6.296875 49.421875 
Q 6.296875 60.640625 12.9375 67.421875 
Q 19.578125 74.21875 30.609375 74.21875 
Q 43.265625 74.21875 49.921875 64.515625 
Q 56.59375 54.828125 56.59375 36.375 
Q 56.59375 19.140625 48.40625 8.859375 
Q 40.234375 -1.421875 26.421875 -1.421875 
Q 22.703125 -1.421875 18.890625 -0.6875 
Q 15.09375 0.046875 10.984375 1.515625 
z
M 30.609375 32.421875 
Q 37.25 32.421875 41.125 36.953125 
Q 45.015625 41.5 45.015625 49.421875 
Q 45.015625 57.28125 41.125 61.84375 
Q 37.25 66.40625 30.609375 66.40625 
Q 23.96875 66.40625 20.09375 61.84375 
Q 16.21875 57.28125 16.21875 49.421875 
Q 16.21875 41.5 20.09375 36.953125 
Q 23.96875 32.421875 30.609375 32.421875 
z
" id="DejaVuSans-39"/>
      </defs>
      <g transform="translate(132.565938 322.182437)scale(0.1 -0.1)">
       <use xlink:href="#DejaVuSans-34"/>
       <use x="63.623047" xlink:href="#DejaVuSans-39"/>
       <use x="127.246094" xlink:href="#DejaVuSans-2e"/>
       <use x="159.033203" xlink:href="#DejaVuSans-30"/>
       <use x="222.65625" xlink:href="#DejaVuSans-30"/>
      </g>
     </g>
    </g>
    <g id="xtick_4">
     <g id="line2d_4">
      <g>
       <use style="stroke:#000000;stroke-width:0.8;" x="191.52" xlink:href="#m28588f8c44" y="307.584"/>
      </g>
     </g>
     <g id="text_4">
      <!-- 49.25 -->
      <defs>
       <path d="M 19.1875 8.296875 
L 53.609375 8.296875 
L 53.609375 0 
L 7.328125 0 
L 7.328125 8.296875 
Q 12.9375 14.109375 22.625 23.890625 
Q 32.328125 33.6875 34.8125 36.53125 
Q 39.546875 41.84375 41.421875 45.53125 
Q 43.3125 49.21875 43.3125 52.78125 
Q 43.3125 58.59375 39.234375 62.25 
Q 35.15625 65.921875 28.609375 65.921875 
Q 23.96875 65.921875 18.8125 64.3125 
Q 13.671875 62.703125 7.8125 59.421875 
L 7.8125 69.390625 
Q 13.765625 71.78125 18.9375 73 
Q 24.125 74.21875 28.421875 74.21875 
Q 39.75 74.21875 46.484375 68.546875 
Q 53.21875 62.890625 53.21875 53.421875 
Q 53.21875 48.921875 51.53125 44.890625 
Q 49.859375 40.875 45.40625 35.40625 
Q 44.1875 33.984375 37.640625 27.21875 
Q 31.109375 20.453125 19.1875 8.296875 
z
" id="DejaVuSans-32"/>
      </defs>
      <g transform="translate(177.205938 322.182437)scale(0.1 -0.1)">
       <use xlink:href="#DejaVuSans-34"/>
       <use x="63.623047" xlink:href="#DejaVuSans-39"/>
       <use x="127.246094" xlink:href="#DejaVuSans-2e"/>
       <use x="159.033203" xlink:href="#DejaVuSans-32"/>
       <use x="222.65625" xlink:href="#DejaVuSans-35"/>
      </g>
     </g>
    </g>
    <g id="xtick_5">
     <g id="line2d_5">
      <g>
       <use style="stroke:#000000;stroke-width:0.8;" x="236.16" xlink:href="#m28588f8c44" y="307.584"/>
      </g>
     </g>
     <g id="text_5">
      <!-- 49.50 -->
      <g transform="translate(221.845937 322.182437)scale(0.1 -0.1)">
       <use xlink:href="#DejaVuSans-34"/>
       <use x="63.623047" xlink:href="#DejaVuSans-39"/>
       <use x="127.246094" xlink:href="#DejaVuSans-2e"/>
       <use x="159.033203" xlink:href="#DejaVuSans-35"/>
       <use x="222.65625" xlink:href="#DejaVuSans-30"/>
      </g>
     </g>
    </g>
    <g id="xtick_6">
     <g id="line2d_6">
      <g>
       <use style="stroke:#000000;stroke-width:0.8;" x="280.8" xlink:href="#m28588f8c44" y="307.584"/>
      </g>
     </g>
     <g id="text_6">
      <!-- 49.75 -->
      <g transform="translate(266.485938 322.182437)scale(0.1 -0.1)">
       <use xlink:href="#DejaVuSans-34"/>
       <use x="63.623047" xlink:href="#DejaVuSans-39"/>
       <use x="127.246094" xlink:href="#DejaVuSans-2e"/>
       <use x="159.033203" xlink:href="#DejaVuSans-37"/>
       <use x="222.65625" xlink:href="#DejaVuSans-35"/>
      </g>
     </g>
    </g>
    <g id="xtick_7">
     <g id="line2d_7">
      <g>
       <use style="stroke:#000000;stroke-width:0.8;" x="325.44" xlink:href="#m28588f8c44" y="307.584"/>
      </g>
     </g>
     <g id="text_7">
      <!-- 50.00 -->
      <g transform="translate(311.125938 322.182437)scale(0.1 -0.1)">
       <use xlink:href="#DejaVuSans-35"/>
       <use x="63.623047" xlink:href="#DejaVuSans-30"/>
       <use x="127.246094" xlink:href="#DejaVuSans-2e"/>
       <use x="159.033203" xlink:href="#DejaVuSans-30"/>
       <use x="222.65625" xlink:href="#DejaVuSans-30"/>
      </g>
     </g>
    </g>
    <g id="xtick_8">
     <g id="line2d_8">
      <g>
       <use style="stroke:#000000;stroke-width:0.8;" x="370.08" xlink:href="#m28588f8c44" y="307.584"/>
      </g>
     </g>
     <g id="text_8">
      <!-- 50.25 -->
      <g transform="translate(355.765937 322.182437)scale(0.1 -0.1)">
       <use xlink:href="#DejaVuSans-35"/>
       <use x="63.623047" xlink:href="#DejaVuSans-30"/>
       <use x="127.246094" xlink:href="#DejaVuSans-2e"/>
       <use x="159.033203" xlink:href="#DejaVuSans-32"/>
       <use x="222.65625" xlink:href="#DejaVuSans-35"/>
      </g>
     </g>
    </g>
    <g id="xtick_9">
     <g id="line2d_9">
      <g>
       <use style="stroke:#000000;stroke-width:0.8;" x="414.72" xlink:href="#m28588f8c44" y="307.584"/>
      </g>
     </g>
     <g id="text_9">
      <!-- 50.50 -->
      <g transform="translate(400.405938 322.182437)scale(0.1 -0.1)">
       <use xlink:href="#DejaVuSans-35"/>
       <use x="63.623047" xlink:href="#DejaVuSans-30"/>
       <use x="127.246094" xlink:href="#DejaVuSans-2e"/>
       <use x="159.033203" xlink:href="#DejaVuSans-35"/>
       <use x="222.65625" xlink:href="#DejaVuSans-30"/>
      </g>
     </g>
    </g>
    <g id="text_10">
     <!-- Time (s) -->
     <defs>
      <path d="M -0.296875 72.90625 
L 61.375 72.90625 
L 61.375 64.59375 
L 35.5 64.59375 
L 35.5 0 
L 25.59375 0 
L 25.59375 64.59375 
L -0.296875 64.59375 
z
" id="DejaVuSans-54"/>
      <path d="M 9.421875 54.6875 
L 18.40625 54.6875 
L 18.40625 0 
L 9.421875 0 
z
M 9.421875 75.984375 
L 18.40625 75.984375 
L 18.40625 64.59375 
L 9.421875 64.59375 
z
" id="DejaVuSans-69"/>
      <path d="M 52 44.1875 
Q 55.375 50.25 60.0625 53.125 
Q 64.75 56 71.09375 56 
Q 79.640625 56 84.28125 50.015625 
Q 88.921875 44.046875 88.921875 33.015625 
L 88.921875 0 
L 79.890625 0 
L 79.890625 32.71875 
Q 79.890625 40.578125 77.09375 44.375 
Q 74.3125 48.1875 68.609375 48.1875 
Q 61.625 48.1875 57.5625 43.546875 
Q 53.515625 38.921875 53.515625 30.90625 
L 53.515625 0 
L 44.484375 0 
L 44.484375 32.71875 
Q 44.484375 40.625 41.703125 44.40625 
Q 38.921875 48.1875 33.109375 48.1875 
Q 26.21875 48.1875 22.15625 43.53125 
Q 18.109375 38.875 18.109375 30.90625 
L 18.109375 0 
L 9.078125 0 
L 9.078125 54.6875 
L 18.109375 54.6875 
L 18.109375 46.1875 
Q 21.1875 51.21875 25.484375 53.609375 
Q 29.78125 56 35.6875 56 
Q 41.65625 56 45.828125 52.96875 
Q 50 49.953125 52 44.1875 
z
" id="DejaVuSans-6d"/>
      <path d="M 56.203125 29.59375 
L 56.203125 25.203125 
L 14.890625 25.203125 
Q 15.484375 15.921875 20.484375 11.0625 
Q 25.484375 6.203125 34.421875 6.203125 
Q 39.59375 6.203125 44.453125 7.46875 
Q 49.3125 8.734375 54.109375 11.28125 
L 54.109375 2.78125 
Q 49.265625 0.734375 44.1875 -0.34375 
Q 39.109375 -1.421875 33.890625 -1.421875 
Q 20.796875 -1.421875 13.15625 6.1875 
Q 5.515625 13.8125 5.515625 26.8125 
Q 5.515625 40.234375 12.765625 48.109375 
Q 20.015625 56 32.328125 56 
Q 43.359375 56 49.78125 48.890625 
Q 56.203125 41.796875 56.203125 29.59375 
z
M 47.21875 32.234375 
Q 47.125 39.59375 43.09375 43.984375 
Q 39.0625 48.390625 32.421875 48.390625 
Q 24.90625 48.390625 20.390625 44.140625 
Q 15.875 39.890625 15.1875 32.171875 
z
" id="DejaVuSans-65"/>
      <path id="DejaVuSans-20"/>
      <path d="M 31 75.875 
Q 24.46875 64.65625 21.28125 53.65625 
Q 18.109375 42.671875 18.109375 31.390625 
Q 18.109375 20.125 21.3125 9.0625 
Q 24.515625 -2 31 -13.1875 
L 23.1875 -13.1875 
Q 15.875 -1.703125 12.234375 9.375 
Q 8.59375 20.453125 8.59375 31.390625 
Q 8.59375 42.28125 12.203125 53.3125 
Q 15.828125 64.359375 23.1875 75.875 
z
" id="DejaVuSans-28"/>
      <path d="M 44.28125 53.078125 
L 44.28125 44.578125 
Q 40.484375 46.53125 36.375 47.5 
Q 32.28125 48.484375 27.875 48.484375 
Q 21.1875 48.484375 17.84375 46.4375 
Q 14.5 44.390625 14.5 40.28125 
Q 14.5 37.15625 16.890625 35.375 
Q 19.28125 33.59375 26.515625 31.984375 
L 29.59375 31.296875 
Q 39.15625 29.25 43.1875 25.515625 
Q 47.21875 21.78125 47.21875 15.09375 
Q 47.21875 7.46875 41.1875 3.015625 
Q 35.15625 -1.421875 24.609375 -1.421875 
Q 20.21875 -1.421875 15.453125 -0.5625 
Q 10.6875 0.296875 5.421875 2 
L 5.421875 11.28125 
Q 10.40625 8.6875 15.234375 7.390625 
Q 20.0625 6.109375 24.8125 6.109375 
Q 31.15625 6.109375 34.5625 8.28125 
Q 37.984375 10.453125 37.984375 14.40625 
Q 37.984375 18.0625 35.515625 20.015625 
Q 33.0625 21.96875 24.703125 23.78125 
L 21.578125 24.515625 
Q 13.234375 26.265625 9.515625 29.90625 
Q 5.8125 33.546875 5.8125 39.890625 
Q 5.8125 47.609375 11.28125 51.796875 
Q 16.75 56 26.8125 56 
Q 31.78125 56 36.171875 55.265625 
Q 40.578125 54.546875 44.28125 53.078125 
z
" id="DejaVuSans-73"/>
      <path d="M 8.015625 75.875 
L 15.828125 75.875 
Q 23.140625 64.359375 26.78125 53.3125 
Q 30.421875 42.28125 30.421875 31.390625 
Q 30.421875 20.453125 26.78125 9.375 
Q 23.140625 -1.703125 15.828125 -13.1875 
L 8.015625 -13.1875 
Q 14.5 -2 17.703125 9.0625 
Q 20.90625 20.125 20.90625 31.390625 
Q 20.90625 42.671875 17.703125 53.65625 
Q 14.5 64.65625 8.015625 75.875 
z
" id="DejaVuSans-29"/>
     </defs>
     <g transform="translate(215.677188 335.860562)scale(0.1 -0.1)">
      <use xlink:href="#DejaVuSans-54"/>
      <use x="61.037109" xlink:href="#DejaVuSans-69"/>
      <use x="88.820312" xlink:href="#DejaVuSans-6d"/>
      <use x="186.232422" xlink:href="#DejaVuSans-65"/>
      <use x="247.755859" xlink:href="#DejaVuSans-20"/>
      <use x="279.542969" xlink:href="#DejaVuSans-28"/>
      <use x="318.556641" xlink:href="#DejaVuSans-73"/>
      <use x="370.65625" xlink:href="#DejaVuSans-29"/>
     </g>
    </g>
   </g>
   <g id="matplotlib.axis_2">
    <g id="ytick_1">
     <g id="line2d_10">
      <defs>
       <path d="M 0 0 
L -3.5 0 
" id="m64f69e062d" style="stroke:#000000;stroke-width:0.8;"/>
      </defs>
      <g>
       <use style="stroke:#000000;stroke-width:0.8;" x="57.6" xlink:href="#m64f69e062d" y="307.584"/>
      </g>
     </g>
     <g id="text_11">
      <!-- −400 -->
      <defs>
       <path d="M 10.59375 35.5 
L 73.1875 35.5 
L 73.1875 27.203125 
L 10.59375 27.203125 
z
" id="DejaVuSans-2212"/>
      </defs>
      <g transform="translate(23.132812 311.383219)scale(0.1 -0.1)">
       <use xlink:href="#DejaVuSans-2212"/>
       <use x="83.789062" xlink:href="#DejaVuSans-34"/>
       <use x="147.412109" xlink:href="#DejaVuSans-30"/>
       <use x="211.035156" xlink:href="#DejaVuSans-30"/>
      </g>
     </g>
    </g>
    <g id="ytick_2">
     <g id="line2d_11">
      <g>
       <use style="stroke:#000000;stroke-width:0.8;" x="57.6" xlink:href="#m64f69e062d" y="266.643692"/>
      </g>
     </g>
     <g id="text_12">
      <!-- −300 -->
      <defs>
       <path d="M 40.578125 39.3125 
Q 47.65625 37.796875 51.625 33 
Q 55.609375 28.21875 55.609375 21.1875 
Q 55.609375 10.40625 48.1875 4.484375 
Q 40.765625 -1.421875 27.09375 -1.421875 
Q 22.515625 -1.421875 17.65625 -0.515625 
Q 12.796875 0.390625 7.625 2.203125 
L 7.625 11.71875 
Q 11.71875 9.328125 16.59375 8.109375 
Q 21.484375 6.890625 26.8125 6.890625 
Q 36.078125 6.890625 40.9375 10.546875 
Q 45.796875 14.203125 45.796875 21.1875 
Q 45.796875 27.640625 41.28125 31.265625 
Q 36.765625 34.90625 28.71875 34.90625 
L 20.21875 34.90625 
L 20.21875 43.015625 
L 29.109375 43.015625 
Q 36.375 43.015625 40.234375 45.921875 
Q 44.09375 48.828125 44.09375 54.296875 
Q 44.09375 59.90625 40.109375 62.90625 
Q 36.140625 65.921875 28.71875 65.921875 
Q 24.65625 65.921875 20.015625 65.03125 
Q 15.375 64.15625 9.8125 62.3125 
L 9.8125 71.09375 
Q 15.4375 72.65625 20.34375 73.4375 
Q 25.25 74.21875 29.59375 74.21875 
Q 40.828125 74.21875 47.359375 69.109375 
Q 53.90625 64.015625 53.90625 55.328125 
Q 53.90625 49.265625 50.4375 45.09375 
Q 46.96875 40.921875 40.578125 39.3125 
z
" id="DejaVuSans-33"/>
      </defs>
      <g transform="translate(23.132812 270.442911)scale(0.1 -0.1)">
       <use xlink:href="#DejaVuSans-2212"/>
       <use x="83.789062" xlink:href="#DejaVuSans-33"/>
       <use x="147.412109" xlink:href="#DejaVuSans-30"/>
       <use x="211.035156" xlink:href="#DejaVuSans-30"/>
      </g>
     </g>
    </g>
    <g id="ytick_3">
     <g id="line2d_12">
      <g>
       <use style="stroke:#000000;stroke-width:0.8;" x="57.6" xlink:href="#m64f69e062d" y="225.703385"/>
      </g>
     </g>
     <g id="text_13">
      <!-- −200 -->
      <g transform="translate(23.132812 229.502603)scale(0.1 -0.1)">
       <use xlink:href="#DejaVuSans-2212"/>
       <use x="83.789062" xlink:href="#DejaVuSans-32"/>
       <use x="147.412109" xlink:href="#DejaVuSans-30"/>
       <use x="211.035156" xlink:href="#DejaVuSans-30"/>
      </g>
     </g>
    </g>
    <g id="ytick_4">
     <g id="line2d_13">
      <g>
       <use style="stroke:#000000;stroke-width:0.8;" x="57.6" xlink:href="#m64f69e062d" y="184.763077"/>
      </g>
     </g>
     <g id="text_14">
      <!-- −100 -->
      <defs>
       <path d="M 12.40625 8.296875 
L 28.515625 8.296875 
L 28.515625 63.921875 
L 10.984375 60.40625 
L 10.984375 69.390625 
L 28.421875 72.90625 
L 38.28125 72.90625 
L 38.28125 8.296875 
L 54.390625 8.296875 
L 54.390625 0 
L 12.40625 0 
z
" id="DejaVuSans-31"/>
      </defs>
      <g transform="translate(23.132812 188.562296)scale(0.1 -0.1)">
       <use xlink:href="#DejaVuSans-2212"/>
       <use x="83.789062" xlink:href="#DejaVuSans-31"/>
       <use x="147.412109" xlink:href="#DejaVuSans-30"/>
       <use x="211.035156" xlink:href="#DejaVuSans-30"/>
      </g>
     </g>
    </g>
    <g id="ytick_5">
     <g id="line2d_14">
      <g>
       <use style="stroke:#000000;stroke-width:0.8;" x="57.6" xlink:href="#m64f69e062d" y="143.822769"/>
      </g>
     </g>
     <g id="text_15">
      <!-- 0 -->
      <g transform="translate(44.2375 147.621988)scale(0.1 -0.1)">
       <use xlink:href="#DejaVuSans-30"/>
      </g>
     </g>
    </g>
    <g id="ytick_6">
     <g id="line2d_15">
      <g>
       <use style="stroke:#000000;stroke-width:0.8;" x="57.6" xlink:href="#m64f69e062d" y="102.882462"/>
      </g>
     </g>
     <g id="text_16">
      <!-- 100 -->
      <g transform="translate(31.5125 106.68168)scale(0.1 -0.1)">
       <use xlink:href="#DejaVuSans-31"/>
       <use x="63.623047" xlink:href="#DejaVuSans-30"/>
       <use x="127.246094" xlink:href="#DejaVuSans-30"/>
      </g>
     </g>
    </g>
    <g id="ytick_7">
     <g id="line2d_16">
      <g>
       <use style="stroke:#000000;stroke-width:0.8;" x="57.6" xlink:href="#m64f69e062d" y="61.942154"/>
      </g>
     </g>
     <g id="text_17">
      <!-- 200 -->
      <g transform="translate(31.5125 65.741373)scale(0.1 -0.1)">
       <use xlink:href="#DejaVuSans-32"/>
       <use x="63.623047" xlink:href="#DejaVuSans-30"/>
       <use x="127.246094" xlink:href="#DejaVuSans-30"/>
      </g>
     </g>
    </g>
    <g id="text_18">
     <!-- Magnitude -->
     <defs>
      <path d="M 9.8125 72.90625 
L 24.515625 72.90625 
L 43.109375 23.296875 
L 61.8125 72.90625 
L 76.515625 72.90625 
L 76.515625 0 
L 66.890625 0 
L 66.890625 64.015625 
L 48.09375 14.015625 
L 38.1875 14.015625 
L 19.390625 64.015625 
L 19.390625 0 
L 9.8125 0 
z
" id="DejaVuSans-4d"/>
      <path d="M 34.28125 27.484375 
Q 23.390625 27.484375 19.1875 25 
Q 14.984375 22.515625 14.984375 16.5 
Q 14.984375 11.71875 18.140625 8.90625 
Q 21.296875 6.109375 26.703125 6.109375 
Q 34.1875 6.109375 38.703125 11.40625 
Q 43.21875 16.703125 43.21875 25.484375 
L 43.21875 27.484375 
z
M 52.203125 31.203125 
L 52.203125 0 
L 43.21875 0 
L 43.21875 8.296875 
Q 40.140625 3.328125 35.546875 0.953125 
Q 30.953125 -1.421875 24.3125 -1.421875 
Q 15.921875 -1.421875 10.953125 3.296875 
Q 6 8.015625 6 15.921875 
Q 6 25.140625 12.171875 29.828125 
Q 18.359375 34.515625 30.609375 34.515625 
L 43.21875 34.515625 
L 43.21875 35.40625 
Q 43.21875 41.609375 39.140625 45 
Q 35.0625 48.390625 27.6875 48.390625 
Q 23 48.390625 18.546875 47.265625 
Q 14.109375 46.140625 10.015625 43.890625 
L 10.015625 52.203125 
Q 14.9375 54.109375 19.578125 55.046875 
Q 24.21875 56 28.609375 56 
Q 40.484375 56 46.34375 49.84375 
Q 52.203125 43.703125 52.203125 31.203125 
z
" id="DejaVuSans-61"/>
      <path d="M 45.40625 27.984375 
Q 45.40625 37.75 41.375 43.109375 
Q 37.359375 48.484375 30.078125 48.484375 
Q 22.859375 48.484375 18.828125 43.109375 
Q 14.796875 37.75 14.796875 27.984375 
Q 14.796875 18.265625 18.828125 12.890625 
Q 22.859375 7.515625 30.078125 7.515625 
Q 37.359375 7.515625 41.375 12.890625 
Q 45.40625 18.265625 45.40625 27.984375 
z
M 54.390625 6.78125 
Q 54.390625 -7.171875 48.1875 -13.984375 
Q 42 -20.796875 29.203125 -20.796875 
Q 24.46875 -20.796875 20.265625 -20.09375 
Q 16.0625 -19.390625 12.109375 -17.921875 
L 12.109375 -9.1875 
Q 16.0625 -11.328125 19.921875 -12.34375 
Q 23.78125 -13.375 27.78125 -13.375 
Q 36.625 -13.375 41.015625 -8.765625 
Q 45.40625 -4.15625 45.40625 5.171875 
L 45.40625 9.625 
Q 42.625 4.78125 38.28125 2.390625 
Q 33.9375 0 27.875 0 
Q 17.828125 0 11.671875 7.65625 
Q 5.515625 15.328125 5.515625 27.984375 
Q 5.515625 40.671875 11.671875 48.328125 
Q 17.828125 56 27.875 56 
Q 33.9375 56 38.28125 53.609375 
Q 42.625 51.21875 45.40625 46.390625 
L 45.40625 54.6875 
L 54.390625 54.6875 
z
" id="DejaVuSans-67"/>
      <path d="M 54.890625 33.015625 
L 54.890625 0 
L 45.90625 0 
L 45.90625 32.71875 
Q 45.90625 40.484375 42.875 44.328125 
Q 39.84375 48.1875 33.796875 48.1875 
Q 26.515625 48.1875 22.3125 43.546875 
Q 18.109375 38.921875 18.109375 30.90625 
L 18.109375 0 
L 9.078125 0 
L 9.078125 54.6875 
L 18.109375 54.6875 
L 18.109375 46.1875 
Q 21.34375 51.125 25.703125 53.5625 
Q 30.078125 56 35.796875 56 
Q 45.21875 56 50.046875 50.171875 
Q 54.890625 44.34375 54.890625 33.015625 
z
" id="DejaVuSans-6e"/>
      <path d="M 18.3125 70.21875 
L 18.3125 54.6875 
L 36.8125 54.6875 
L 36.8125 47.703125 
L 18.3125 47.703125 
L 18.3125 18.015625 
Q 18.3125 11.328125 20.140625 9.421875 
Q 21.96875 7.515625 27.59375 7.515625 
L 36.8125 7.515625 
L 36.8125 0 
L 27.59375 0 
Q 17.1875 0 13.234375 3.875 
Q 9.28125 7.765625 9.28125 18.015625 
L 9.28125 47.703125 
L 2.6875 47.703125 
L 2.6875 54.6875 
L 9.28125 54.6875 
L 9.28125 70.21875 
z
" id="DejaVuSans-74"/>
      <path d="M 8.5 21.578125 
L 8.5 54.6875 
L 17.484375 54.6875 
L 17.484375 21.921875 
Q 17.484375 14.15625 20.5 10.265625 
Q 23.53125 6.390625 29.59375 6.390625 
Q 36.859375 6.390625 41.078125 11.03125 
Q 45.3125 15.671875 45.3125 23.6875 
L 45.3125 54.6875 
L 54.296875 54.6875 
L 54.296875 0 
L 45.3125 0 
L 45.3125 8.40625 
Q 42.046875 3.421875 37.71875 1 
Q 33.40625 -1.421875 27.6875 -1.421875 
Q 18.265625 -1.421875 13.375 4.4375 
Q 8.5 10.296875 8.5 21.578125 
z
M 31.109375 56 
z
" id="DejaVuSans-75"/>
      <path d="M 45.40625 46.390625 
L 45.40625 75.984375 
L 54.390625 75.984375 
L 54.390625 0 
L 45.40625 0 
L 45.40625 8.203125 
Q 42.578125 3.328125 38.25 0.953125 
Q 33.9375 -1.421875 27.875 -1.421875 
Q 17.96875 -1.421875 11.734375 6.484375 
Q 5.515625 14.40625 5.515625 27.296875 
Q 5.515625 40.1875 11.734375 48.09375 
Q 17.96875 56 27.875 56 
Q 33.9375 56 38.25 53.625 
Q 42.578125 51.265625 45.40625 46.390625 
z
M 14.796875 27.296875 
Q 14.796875 17.390625 18.875 11.75 
Q 22.953125 6.109375 30.078125 6.109375 
Q 37.203125 6.109375 41.296875 11.75 
Q 45.40625 17.390625 45.40625 27.296875 
Q 45.40625 37.203125 41.296875 42.84375 
Q 37.203125 48.484375 30.078125 48.484375 
Q 22.953125 48.484375 18.875 42.84375 
Q 14.796875 37.203125 14.796875 27.296875 
z
" id="DejaVuSans-64"/>
     </defs>
     <g transform="translate(17.053125 201.017844)rotate(-90)scale(0.1 -0.1)">
      <use xlink:href="#DejaVuSans-4d"/>
      <use x="86.279297" xlink:href="#DejaVuSans-61"/>
      <use x="147.558594" xlink:href="#DejaVuSans-67"/>
      <use x="211.035156" xlink:href="#DejaVuSans-6e"/>
      <use x="274.414062" xlink:href="#DejaVuSans-69"/>
      <use x="302.197266" xlink:href="#DejaVuSans-74"/>
      <use x="341.40625" xlink:href="#DejaVuSans-75"/>
      <use x="404.785156" xlink:href="#DejaVuSans-64"/>
      <use x="468.261719" xlink:href="#DejaVuSans-65"/>
     </g>
    </g>
   </g>
   <g id="line2d_17">
    <path clip-path="url(#p34c02ea42c)" d="M 57.121366 169.20289 
L 57.835625 210.701588 
L 58.549884 204.340117 
L 59.264144 164.220088 
L 59.978403 144.679757 
L 60.692663 173.133664 
L 61.406922 216.934852 
L 62.121182 212.953973 
L 62.835441 169.962924 
L 63.5497 153.914913 
L 64.26396 177.723322 
L 64.978219 214.37995 
L 65.692479 209.602117 
L 66.406738 171.87427 
L 67.120998 148.542165 
L 67.835257 172.891915 
L 68.549516 207.953441 
L 69.263776 203.583949 
L 69.978035 165.686582 
L 70.692295 141.616831 
L 71.406554 161.867619 
L 72.120814 202.890014 
L 72.835073 204.741923 
L 73.549332 161.475942 
L 74.263592 136.357761 
L 74.977851 160.630749 
L 75.692111 202.391585 
L 76.40637 202.259517 
L 77.12063 165.25399 
L 77.834889 139.591672 
L 78.549149 162.091512 
L 79.263408 202.118117 
L 79.977667 202.838039 
L 80.691927 162.238908 
L 81.406186 139.623257 
L 82.120446 161.403577 
L 82.834705 199.777111 
L 83.548965 200.653758 
L 84.263224 161.439692 
L 84.977483 132.753762 
L 85.691743 159.36589 
L 86.406002 201.256131 
L 87.120262 204.690479 
L 87.834521 161.4245 
L 88.548781 135.090371 
L 89.26304 157.582882 
L 89.977299 198.000766 
L 90.691559 198.303689 
L 91.405818 158.899447 
L 92.120078 131.292599 
L 92.834337 151.197554 
L 93.548597 186.531086 
L 94.262856 188.85197 
L 94.977115 156.036292 
L 95.691375 130.97102 
L 96.405634 151.779274 
L 97.119894 194.021214 
L 97.834153 199.832154 
L 98.548413 159.814074 
L 99.262672 135.316529 
L 99.976932 151.251528 
L 100.691191 194.542029 
L 101.40545 206.222542 
L 102.11971 169.466763 
L 102.833969 142.3045 
L 103.548229 160.704713 
L 104.262488 199.588933 
L 104.976748 207.001368 
L 105.691007 170.519591 
L 106.405266 141.345095 
L 107.119526 158.323726 
L 107.833785 198.042614 
L 108.548045 205.513415 
L 109.262304 167.115494 
L 109.976564 138.793656 
L 110.690823 159.02752 
L 111.405082 196.021983 
L 112.119342 198.906861 
L 113.547861 132.367814 
L 114.26212 154.245021 
L 114.97638 195.857531 
L 115.690639 200.495435 
L 117.119158 140.733522 
L 117.833417 156.369865 
L 118.547677 192.713178 
L 119.261936 199.648242 
L 119.976196 159.984659 
L 120.690455 128.534326 
L 121.404715 148.692759 
L 122.118974 187.660942 
L 122.833233 197.539656 
L 124.261752 129.388315 
L 124.976012 151.458628 
L 125.690271 191.479503 
L 126.404531 197.583098 
L 127.11879 168.951145 
L 127.833049 135.379166 
L 128.547309 151.971315 
L 129.261568 188.944591 
L 129.975828 195.418677 
L 130.690087 157.021552 
L 131.404347 126.451861 
L 132.118606 141.713451 
L 132.832865 176.057592 
L 133.547125 183.224411 
L 134.261384 148.161415 
L 134.975644 120.442753 
L 135.689903 138.824708 
L 136.404163 180.269698 
L 137.118422 188.46842 
L 138.546941 127.067699 
L 139.2612 142.946724 
L 139.97546 184.235524 
L 140.689719 190.817955 
L 142.118238 128.093205 
L 142.832497 147.165228 
L 143.546757 186.515094 
L 144.261016 204.641834 
L 145.689535 140.012936 
L 146.403795 152.138568 
L 147.118054 190.704144 
L 147.832314 206.453363 
L 149.260832 145.493499 
L 149.975092 158.698611 
L 150.689351 200.658956 
L 151.403611 218.735455 
L 152.11787 188.060082 
L 152.83213 151.121324 
L 153.546389 162.713879 
L 154.260648 203.475732 
L 154.974908 218.768908 
L 156.403427 156.823514 
L 157.117686 174.973979 
L 157.831946 214.364626 
L 158.546205 229.897548 
L 159.260464 202.27218 
L 159.974724 169.793273 
L 160.688983 178.826792 
L 161.403243 223.038985 
L 162.117502 237.633159 
L 163.546021 175.969235 
L 164.26028 187.921883 
L 164.97454 236.167601 
L 165.688799 246.842998 
L 166.403059 218.992 
L 167.117318 184.571363 
L 167.831578 193.955112 
L 168.545837 234.76001 
L 169.260097 251.533935 
L 170.688615 195.842604 
L 171.402875 208.509442 
L 172.117134 247.307043 
L 172.831394 265.612501 
L 173.545653 238.81366 
L 174.259913 203.681365 
L 174.974172 217.855878 
L 175.688431 257.00118 
L 176.402691 277.016615 
L 177.83121 207.06267 
L 178.545469 219.074361 
L 179.259729 262.216397 
L 179.973988 283.127676 
L 180.688247 258.689168 
L 181.402507 224.940739 
L 182.116766 234.58703 
L 182.831026 276.409308 
L 183.545285 295.425886 
L 184.973804 224.618357 
L 185.688063 232.713263 
L 186.402323 274.300584 
L 187.116582 293.901156 
L 187.830842 265.497881 
L 188.545101 221.99082 
L 189.259361 229.029703 
L 189.97362 266.661059 
L 190.68788 282.536485 
L 192.116398 208.688687 
L 192.830658 209.540678 
L 193.544917 254.764519 
L 194.259177 265.182832 
L 194.973436 238.485418 
L 195.687696 198.271036 
L 196.401955 196.401135 
L 197.116214 233.497417 
L 197.830474 247.056626 
L 198.544733 218.745182 
L 199.258993 176.559351 
L 199.973252 177.814479 
L 200.687512 222.878393 
L 201.401771 246.183715 
L 202.11603 222.347449 
L 202.83029 183.86157 
L 203.544549 184.183415 
L 204.258809 227.272011 
L 204.973068 241.234096 
L 205.687328 214.715926 
L 206.401587 177.190248 
L 207.115846 181.577069 
L 207.830106 227.10516 
L 208.544365 250.226039 
L 209.258625 226.857679 
L 209.972884 190.381231 
L 210.687144 191.152994 
L 211.401403 235.957702 
L 212.115662 258.938249 
L 212.829922 228.797278 
L 213.544181 192.620423 
L 214.258441 191.764434 
L 214.9727 226.767723 
L 215.68696 251.405872 
L 216.401219 222.844678 
L 217.115479 181.187391 
L 217.829738 177.768501 
L 218.543997 222.88639 
L 219.258257 245.15714 
L 219.972516 219.524807 
L 220.686776 177.892975 
L 221.401035 173.690066 
L 222.115295 209.996858 
L 222.829554 230.26817 
L 223.543813 200.08923 
L 224.258073 158.749121 
L 224.972332 152.709093 
L 225.686592 184.854292 
L 226.400851 209.49177 
L 227.115111 177.755176 
L 227.82937 138.817511 
L 228.543629 131.386287 
L 229.257889 174.321359 
L 229.972148 201.904757 
L 230.686408 171.618793 
L 231.400667 126.437202 
L 232.114927 120.364257 
L 232.829186 160.100469 
L 233.543445 180.821432 
L 234.257705 160.687921 
L 234.971964 115.880816 
L 235.686224 116.468133 
L 236.400483 151.967317 
L 237.114743 168.09489 
L 237.829002 144.149479 
L 238.543262 105.020308 
L 239.257521 99.91463 
L 239.97178 137.137119 
L 240.68604 162.264496 
L 241.400299 142.030365 
L 242.114559 99.05811 
L 242.828818 99.740048 
L 243.543078 135.159804 
L 244.257337 160.809995 
L 244.971596 137.251464 
L 245.685856 99.575593 
L 246.400115 89.389027 
L 247.114375 127.595445 
L 247.828634 158.561211 
L 248.542894 130.781112 
L 249.257153 91.478425 
L 249.971412 87.451959 
L 250.685672 128.049892 
L 251.399931 157.27543 
L 252.114191 133.094398 
L 252.82845 92.72942 
L 253.54271 82.179164 
L 254.256969 118.980656 
L 254.971228 140.053316 
L 255.685488 127.079026 
L 256.399747 80.506768 
L 257.114007 75.063386 
L 257.828266 108.318453 
L 258.542526 134.681768 
L 259.256785 115.836568 
L 259.971045 73.770677 
L 260.685304 65.589681 
L 261.399563 105.945463 
L 262.113823 131.207306 
L 262.828082 108.71093 
L 263.542342 67.685204 
L 264.256601 53.680878 
L 265.68512 118.16105 
L 266.399379 99.003737 
L 267.113639 59.598163 
L 267.827898 52.262628 
L 268.542158 92.986631 
L 269.256417 119.468955 
L 269.970677 100.224215 
L 270.684936 63.296115 
L 271.399195 54.997975 
L 272.113455 92.95771 
L 272.827714 124.931526 
L 273.541974 111.647386 
L 274.256233 64.861231 
L 274.970493 61.969822 
L 275.684752 95.618965 
L 276.399011 136.618836 
L 277.113271 123.673331 
L 277.82753 81.95767 
L 278.54179 81.967403 
L 279.256049 111.271433 
L 279.970309 147.968841 
L 280.684568 131.166925 
L 281.398827 90.440521 
L 282.113087 76.88358 
L 283.541606 143.892802 
L 284.255865 125.251905 
L 284.970125 93.676433 
L 285.684384 76.841731 
L 287.112903 147.183352 
L 287.827162 126.938826 
L 288.541422 85.669354 
L 289.255681 77.241008 
L 289.969941 109.784148 
L 290.6842 148.3316 
L 291.39846 135.741258 
L 292.112719 92.837368 
L 292.826978 83.062339 
L 294.255497 147.969107 
L 294.969757 132.430184 
L 295.684016 90.35643 
L 296.398276 80.046727 
L 297.826794 148.585877 
L 298.541054 135.929834 
L 299.255313 96.392593 
L 299.969573 85.259551 
L 300.683832 117.935693 
L 301.398092 155.812666 
L 302.112351 140.445794 
L 302.82661 99.480307 
L 303.54087 85.239691 
L 304.969389 158.9978 
L 305.683648 149.100563 
L 306.397908 104.779624 
L 307.112167 87.511667 
L 308.540686 158.631043 
L 309.254945 147.933658 
L 309.969205 107.305075 
L 310.683464 97.910662 
L 312.111983 168.632898 
L 312.826243 159.651885 
L 313.540502 115.499265 
L 314.254761 105.610156 
L 314.969021 136.294192 
L 315.68328 174.675723 
L 316.39754 163.024663 
L 317.111799 122.44299 
L 317.826059 105.090674 
L 318.540318 134.253041 
L 319.254577 170.499466 
L 319.968837 162.431215 
L 320.683096 119.17483 
L 321.397356 102.673037 
L 322.825875 167.94896 
L 323.540134 162.807967 
L 324.254393 121.82582 
L 324.968653 105.417317 
L 325.682912 132.955799 
L 326.397172 169.065623 
L 327.111431 151.347215 
L 327.825691 106.849029 
L 328.53995 89.923439 
L 329.25421 118.263801 
L 329.968469 158.905311 
L 330.682728 152.524116 
L 331.396988 110.650666 
L 332.111247 96.260522 
L 332.825507 122.648891 
L 333.539766 161.19501 
L 334.254026 156.578431 
L 334.968285 115.739415 
L 335.682544 99.189778 
L 336.396804 129.31675 
L 337.111063 166.615735 
L 337.825323 157.455343 
L 338.539582 115.291099 
L 339.253842 93.43375 
L 339.968101 123.903753 
L 340.68236 166.693298 
L 341.39662 158.525494 
L 342.110879 113.574325 
L 342.825139 88.978025 
L 343.539398 116.19493 
L 344.253658 156.252055 
L 344.967917 145.039051 
L 345.682176 105.57724 
L 346.396436 86.127664 
L 347.110695 108.542345 
L 347.824955 146.917214 
L 348.539214 140.462053 
L 349.253474 99.826407 
L 349.967733 81.331171 
L 350.681992 107.393432 
L 351.396252 149.035261 
L 352.110511 146.063091 
L 352.824771 105.819255 
L 353.53903 87.101465 
L 354.25329 113.394012 
L 354.967549 151.499809 
L 355.681809 150.391542 
L 356.396068 104.938879 
L 357.110327 83.909662 
L 357.824587 107.202858 
L 358.538846 147.001973 
L 359.253106 146.577777 
L 359.967365 110.740622 
L 360.681625 88.029818 
L 361.395884 114.537727 
L 362.110143 161.120379 
L 362.824403 159.310584 
L 363.538662 113.703329 
L 364.252922 92.921728 
L 364.967181 121.304338 
L 365.681441 155.22455 
L 366.3957 161.258979 
L 367.109959 117.676485 
L 367.824219 94.37183 
L 368.538478 126.851536 
L 369.252738 164.786348 
L 369.966997 165.334617 
L 370.681257 125.571618 
L 371.395516 98.816892 
L 372.109775 125.61613 
L 372.824035 163.252153 
L 373.538294 159.064835 
L 374.252554 116.058196 
L 374.966813 87.971709 
L 375.681073 112.790302 
L 376.395332 157.606736 
L 377.109592 158.215243 
L 377.823851 114.107534 
L 378.53811 90.822606 
L 379.25237 121.019142 
L 379.966629 159.826468 
L 380.680889 161.219798 
L 381.395148 123.23301 
L 382.109408 96.018507 
L 382.823667 122.842266 
L 383.537926 158.516698 
L 384.252186 165.403519 
L 384.966445 129.039016 
L 385.680705 98.807162 
L 386.394964 121.747325 
L 387.109224 166.375317 
L 387.823483 169.187697 
L 388.537742 130.043066 
L 389.252002 105.763151 
L 389.966261 129.085661 
L 390.680521 167.74106 
L 391.39478 169.652141 
L 392.10904 132.317572 
L 392.823299 102.021351 
L 393.537558 130.083581 
L 394.251818 173.560928 
L 394.966077 177.790624 
L 396.394596 104.562129 
L 397.108856 125.21539 
L 397.823115 162.881265 
L 398.537375 166.177812 
L 399.965893 96.119524 
L 401.394412 161.00217 
L 402.108672 170.621542 
L 403.537191 99.524018 
L 404.25145 118.972794 
L 404.965709 162.120298 
L 405.679969 167.550352 
L 406.394228 126.528624 
L 407.108488 100.569783 
L 407.822747 117.578799 
L 408.537007 157.600074 
L 409.251266 156.795927 
L 410.679785 89.300138 
L 411.394044 110.287106 
L 412.108304 156.339213 
L 412.822563 154.809016 
L 414.251082 85.910969 
L 414.965341 105.731032 
L 414.965341 105.731032 
" style="fill:none;stroke:#1f77b4;stroke-linecap:square;stroke-width:1.5;"/>
   </g>
   <g id="line2d_18">
    <path clip-path="url(#p34c02ea42c)" d="M 57.121366 176.984418 
L 57.835625 179.440837 
L 58.549884 176.984418 
L 59.264144 178.622031 
L 59.978403 180.669046 
L 60.692663 180.669046 
L 61.406922 184.763077 
L 62.835441 184.763077 
L 63.5497 190.49472 
L 64.26396 185.581883 
L 64.978219 183.944271 
L 65.692479 183.125465 
L 66.406738 185.17248 
L 67.120998 183.125465 
L 69.263776 178.212628 
L 69.978035 178.212628 
L 71.406554 171.662178 
L 72.120814 176.165612 
L 72.835073 177.393822 
L 73.549332 171.662178 
L 74.263592 171.252775 
L 74.977851 172.480985 
L 75.692111 174.118597 
L 76.40637 172.480985 
L 77.12063 174.937403 
L 77.834889 175.346806 
L 78.549149 175.346806 
L 79.263408 174.937403 
L 79.977667 172.890388 
L 80.691927 171.252775 
L 81.406186 174.937403 
L 82.834705 172.480985 
L 84.263224 170.843372 
L 84.977483 167.977551 
L 85.691743 171.662178 
L 86.406002 172.890388 
L 87.120262 174.528 
L 87.834521 171.662178 
L 88.548781 172.480985 
L 90.691559 167.568148 
L 91.405818 168.796357 
L 92.120078 168.386954 
L 92.834337 165.111729 
L 93.548597 159.789489 
L 94.262856 159.380086 
L 94.977115 163.474117 
L 95.691375 163.88352 
L 96.405634 164.702326 
L 97.119894 168.796357 
L 97.834153 170.024566 
L 98.548413 166.749342 
L 99.262672 169.615163 
L 99.976932 165.930535 
L 100.691191 169.615163 
L 101.40545 174.118597 
L 102.11971 173.299791 
L 102.833969 176.575015 
L 103.548229 177.803225 
L 104.262488 176.165612 
L 104.976748 175.756209 
L 105.691007 174.937403 
L 106.405266 175.346806 
L 107.119526 175.346806 
L 107.833785 174.937403 
L 108.548045 174.118597 
L 109.262304 171.252775 
L 109.976564 172.890388 
L 110.690823 175.346806 
L 112.119342 168.796357 
L 112.833601 170.433969 
L 113.547861 166.339938 
L 114.26212 169.615163 
L 114.97638 170.433969 
L 115.690639 169.20576 
L 116.404898 176.165612 
L 117.833417 172.890388 
L 118.547677 170.024566 
L 119.261936 169.615163 
L 119.976196 165.111729 
L 120.690455 163.064714 
L 121.404715 165.111729 
L 122.118974 163.064714 
L 122.833233 165.930535 
L 123.547493 167.568148 
L 124.261752 164.292923 
L 124.976012 168.796357 
L 125.690271 166.749342 
L 126.404531 165.521132 
L 127.11879 172.480985 
L 127.833049 168.796357 
L 128.547309 169.615163 
L 129.261568 167.158745 
L 129.975828 165.111729 
L 130.690087 161.017698 
L 131.404347 160.198892 
L 132.118606 158.970683 
L 132.832865 154.057846 
L 133.547125 153.648443 
L 134.261384 152.010831 
L 134.975644 152.420234 
L 135.689903 154.467249 
L 136.404163 156.923668 
L 137.118422 157.742474 
L 137.832681 160.608295 
L 138.546941 159.380086 
L 139.2612 159.789489 
L 139.97546 161.836505 
L 140.689719 160.198892 
L 141.403979 163.474117 
L 142.118238 160.608295 
L 142.832497 164.292923 
L 143.546757 163.88352 
L 144.261016 172.071582 
L 144.975276 174.528 
L 145.689535 172.890388 
L 146.403795 172.890388 
L 147.118054 171.252775 
L 147.832314 173.299791 
L 148.546573 174.118597 
L 149.975092 179.85024 
L 150.689351 181.487852 
L 151.403611 184.353674 
L 152.11787 184.763077 
L 152.83213 183.534868 
L 153.546389 186.400689 
L 154.260648 185.581883 
L 154.974908 183.944271 
L 155.689167 184.763077 
L 156.403427 188.447705 
L 157.117686 196.635766 
L 157.831946 194.998154 
L 158.546205 196.226363 
L 159.260464 199.501588 
L 159.974724 200.729797 
L 160.688983 200.320394 
L 161.403243 204.823828 
L 162.831762 203.186215 
L 163.546021 207.280246 
L 164.26028 208.508455 
L 164.97454 215.877711 
L 165.688799 213.011889 
L 166.403059 218.334129 
L 167.117318 217.10592 
L 167.831578 215.058905 
L 168.545837 215.877711 
L 169.260097 218.334129 
L 171.402875 228.978609 
L 172.117134 229.797415 
L 172.831394 233.891446 
L 173.545653 235.529058 
L 174.259913 233.07264 
L 174.974172 238.804283 
L 175.688431 239.213686 
L 176.402691 244.126523 
L 177.11695 241.260702 
L 177.83121 239.213686 
L 178.545469 241.670105 
L 179.259729 242.898314 
L 179.973988 247.401748 
L 180.688247 253.952197 
L 182.116766 258.046228 
L 183.545285 260.502646 
L 184.259545 257.227422 
L 185.688063 258.046228 
L 186.402323 257.227422 
L 187.116582 257.636825 
L 187.830842 259.274437 
L 188.545101 255.180406 
L 189.259361 256.818018 
L 191.402139 240.032492 
L 192.116398 241.670105 
L 192.830658 235.938462 
L 193.544917 238.804283 
L 194.259177 229.797415 
L 194.973436 233.482043 
L 195.687696 230.206818 
L 196.401955 223.246966 
L 197.116214 220.381145 
L 197.830474 213.830695 
L 198.544733 212.602486 
L 199.258993 206.870843 
L 199.973252 204.414425 
L 200.687512 208.917858 
L 201.401771 209.736665 
L 202.11603 212.602486 
L 202.83029 213.421292 
L 203.544549 213.011889 
L 204.258809 215.877711 
L 204.973068 206.46144 
L 205.687328 206.052037 
L 206.401587 206.46144 
L 207.115846 208.099052 
L 207.830106 213.011889 
L 208.544365 214.240098 
L 209.258625 217.924726 
L 209.972884 219.971742 
L 210.687144 218.334129 
L 211.401403 222.837563 
L 212.115662 222.837563 
L 212.829922 219.971742 
L 213.544181 223.246966 
L 214.258441 219.562338 
L 214.9727 214.649502 
L 215.68696 216.287114 
L 216.401219 213.011889 
L 217.115479 210.964874 
L 217.829738 207.280246 
L 218.543997 211.374277 
L 219.258257 208.099052 
L 219.972516 208.508455 
L 220.686776 208.508455 
L 221.401035 204.823828 
L 222.115295 200.320394 
L 223.543813 189.675914 
L 224.258073 188.857108 
L 224.972332 183.125465 
L 225.686592 176.165612 
L 226.400851 175.346806 
L 227.115111 166.749342 
L 227.82937 167.568148 
L 228.543629 161.427102 
L 229.257889 165.111729 
L 229.972148 165.111729 
L 230.686408 158.970683 
L 231.400667 157.333071 
L 232.114927 153.23904 
L 232.829186 150.373218 
L 233.543445 143.413366 
L 234.257705 147.507397 
L 234.971964 144.641575 
L 235.686224 147.507397 
L 236.400483 143.003963 
L 237.114743 133.997095 
L 237.829002 133.997095 
L 238.543262 132.768886 
L 239.257521 127.856049 
L 239.97178 127.856049 
L 240.68604 128.674855 
L 241.400299 130.312468 
L 242.114559 125.399631 
L 242.828818 128.265452 
L 243.543078 126.218437 
L 244.257337 127.037243 
L 244.971596 125.399631 
L 245.685856 126.218437 
L 246.400115 118.849182 
L 247.114375 120.486794 
L 247.828634 123.762018 
L 248.542894 116.802166 
L 249.257153 118.439778 
L 249.971412 118.030375 
L 250.685672 119.667988 
L 251.399931 120.896197 
L 252.114191 118.849182 
L 252.82845 120.486794 
L 253.54271 114.755151 
L 254.256969 113.117538 
L 254.971228 105.33888 
L 255.685488 111.479926 
L 256.399747 105.33888 
L 257.114007 106.976492 
L 258.542526 101.244849 
L 259.256785 99.607237 
L 259.971045 97.560222 
L 260.685304 97.150818 
L 261.399563 101.244849 
L 262.113823 96.741415 
L 262.828082 93.466191 
L 263.542342 93.466191 
L 264.256601 86.506338 
L 264.970861 84.459323 
L 265.68512 84.04992 
L 266.399379 81.593502 
L 267.827898 84.04992 
L 268.542158 88.553354 
L 269.256417 84.868726 
L 269.970677 84.04992 
L 270.684936 87.734548 
L 271.399195 85.687532 
L 272.113455 87.734548 
L 272.827714 90.190966 
L 273.541974 94.284997 
L 274.256233 89.37216 
L 274.970493 94.6944 
L 275.684752 91.009772 
L 276.399011 100.01664 
L 277.113271 103.291865 
L 277.82753 105.33888 
L 278.54179 115.164554 
L 279.256049 108.204702 
L 279.970309 113.526942 
L 280.684568 111.889329 
L 281.398827 112.708135 
L 282.113087 110.66112 
L 282.827346 112.298732 
L 283.541606 109.842314 
L 284.255865 105.748283 
L 284.970125 114.345748 
L 285.684384 108.614105 
L 286.398644 113.526942 
L 287.112903 113.936345 
L 287.827162 107.795298 
L 288.541422 107.795298 
L 289.255681 109.432911 
L 289.969941 107.385895 
L 290.6842 113.936345 
L 291.39846 115.164554 
L 292.112719 114.755151 
L 292.826978 117.211569 
L 293.541238 113.526942 
L 294.255497 114.345748 
L 294.969757 111.889329 
L 295.684016 111.479926 
L 296.398276 113.526942 
L 297.112535 115.98336 
L 297.826794 114.755151 
L 298.541054 115.573957 
L 299.255313 117.211569 
L 299.969573 118.030375 
L 300.683832 117.620972 
L 301.398092 122.533809 
L 302.112351 119.667988 
L 302.82661 120.077391 
L 303.54087 118.849182 
L 304.255129 122.533809 
L 304.969389 124.171422 
L 305.683648 127.037243 
L 306.397908 125.809034 
L 307.112167 123.762018 
L 307.826427 123.352615 
L 308.540686 123.352615 
L 309.254945 123.762018 
L 309.969205 127.037243 
L 310.683464 132.768886 
L 311.397724 134.815902 
L 312.111983 133.997095 
L 312.826243 137.681723 
L 313.540502 136.044111 
L 314.254761 139.728738 
L 314.969021 136.862917 
L 315.68328 140.956948 
L 316.39754 140.956948 
L 317.111799 142.185157 
L 318.540318 136.453514 
L 319.254577 138.091126 
L 319.968837 139.319335 
L 320.683096 137.27232 
L 321.397356 137.27232 
L 322.111615 137.681723 
L 322.825875 136.044111 
L 323.540134 138.909932 
L 324.254393 138.500529 
L 324.968653 139.319335 
L 325.682912 137.681723 
L 326.397172 138.500529 
L 327.111431 129.084258 
L 327.825691 125.809034 
L 328.53995 124.580825 
L 329.25421 121.3056 
L 329.968469 125.809034 
L 330.682728 127.856049 
L 331.396988 128.265452 
L 332.111247 131.131274 
L 332.825507 127.037243 
L 333.539766 129.493662 
L 334.254026 131.540677 
L 334.968285 131.540677 
L 335.682544 133.587692 
L 336.396804 134.815902 
L 337.111063 135.225305 
L 337.825323 132.768886 
L 338.539582 131.95008 
L 339.253842 129.084258 
L 339.968101 129.903065 
L 340.68236 133.587692 
L 341.39662 131.540677 
L 342.110879 130.312468 
L 343.539398 124.580825 
L 344.253658 123.352615 
L 344.967917 117.211569 
L 345.682176 121.715003 
L 346.396436 123.352615 
L 347.110695 116.802166 
L 347.824955 115.98336 
L 348.539214 113.526942 
L 349.253474 113.936345 
L 349.967733 116.392763 
L 350.681992 115.164554 
L 351.396252 118.439778 
L 352.824771 119.258585 
L 353.53903 122.124406 
L 354.25329 121.3056 
L 354.967549 121.715003 
L 355.681809 123.352615 
L 356.396068 118.030375 
L 357.110327 119.667988 
L 357.824587 116.802166 
L 359.253106 118.439778 
L 359.967365 121.715003 
L 360.681625 122.533809 
L 361.395884 124.580825 
L 362.110143 131.540677 
L 362.824403 129.903065 
L 363.538662 126.218437 
L 364.252922 129.903065 
L 364.967181 131.131274 
L 365.681441 124.990228 
L 366.3957 132.359483 
L 367.109959 129.084258 
L 367.824219 130.721871 
L 368.538478 136.862917 
L 369.252738 133.997095 
L 369.966997 136.453514 
L 370.681257 137.681723 
L 371.395516 135.634708 
L 372.109775 136.862917 
L 373.538294 130.312468 
L 374.252554 129.084258 
L 374.966813 125.399631 
L 375.681073 124.171422 
L 376.395332 126.62784 
L 377.109592 127.037243 
L 377.823851 126.218437 
L 379.25237 131.95008 
L 379.966629 128.265452 
L 380.680889 131.131274 
L 381.395148 135.225305 
L 382.109408 133.178289 
L 382.823667 133.997095 
L 383.537926 129.084258 
L 384.252186 135.634708 
L 384.966445 138.091126 
L 385.680705 134.406498 
L 386.394964 135.634708 
L 387.109224 138.500529 
L 387.823483 137.27232 
L 388.537742 137.681723 
L 389.252002 141.775754 
L 389.966261 143.003963 
L 390.680521 140.956948 
L 391.39478 139.728738 
L 392.10904 140.547545 
L 392.823299 137.681723 
L 393.537558 143.413366 
L 394.251818 145.050978 
L 395.680337 147.507397 
L 396.394596 142.59456 
L 397.108856 141.366351 
L 397.823115 136.044111 
L 398.537375 134.406498 
L 399.251634 135.634708 
L 399.965893 132.768886 
L 400.680153 142.185157 
L 401.394412 133.178289 
L 402.108672 139.319335 
L 402.822931 140.547545 
L 403.537191 136.044111 
L 404.25145 135.634708 
L 404.965709 136.044111 
L 405.679969 134.406498 
L 406.394228 132.359483 
L 407.108488 136.862917 
L 407.822747 133.997095 
L 408.537007 132.359483 
L 409.251266 126.218437 
L 409.965525 128.265452 
L 410.679785 124.171422 
L 411.394044 125.399631 
L 412.108304 129.903065 
L 412.822563 123.762018 
L 413.536823 125.809034 
L 414.251082 122.124406 
L 414.965341 120.896197 
L 414.965341 120.896197 
" style="fill:none;stroke:#ff7f0e;stroke-linecap:square;stroke-width:1.5;"/>
   </g>
   <g id="patch_3">
    <path d="M 57.6 307.584 
L 57.6 41.472 
" style="fill:none;stroke:#000000;stroke-linecap:square;stroke-linejoin:miter;stroke-width:0.8;"/>
   </g>
   <g id="patch_4">
    <path d="M 414.72 307.584 
L 414.72 41.472 
" style="fill:none;stroke:#000000;stroke-linecap:square;stroke-linejoin:miter;stroke-width:0.8;"/>
   </g>
   <g id="patch_5">
    <path d="M 57.6 307.584 
L 414.72 307.584 
" style="fill:none;stroke:#000000;stroke-linecap:square;stroke-linejoin:miter;stroke-width:0.8;"/>
   </g>
   <g id="patch_6">
    <path d="M 57.6 41.472 
L 414.72 41.472 
" style="fill:none;stroke:#000000;stroke-linecap:square;stroke-linejoin:miter;stroke-width:0.8;"/>
   </g>
   <g id="text_19">
    <!-- Object was Pulled -->
    <defs>
     <path d="M 39.40625 66.21875 
Q 28.65625 66.21875 22.328125 58.203125 
Q 16.015625 50.203125 16.015625 36.375 
Q 16.015625 22.609375 22.328125 14.59375 
Q 28.65625 6.59375 39.40625 6.59375 
Q 50.140625 6.59375 56.421875 14.59375 
Q 62.703125 22.609375 62.703125 36.375 
Q 62.703125 50.203125 56.421875 58.203125 
Q 50.140625 66.21875 39.40625 66.21875 
z
M 39.40625 74.21875 
Q 54.734375 74.21875 63.90625 63.9375 
Q 73.09375 53.65625 73.09375 36.375 
Q 73.09375 19.140625 63.90625 8.859375 
Q 54.734375 -1.421875 39.40625 -1.421875 
Q 24.03125 -1.421875 14.8125 8.828125 
Q 5.609375 19.09375 5.609375 36.375 
Q 5.609375 53.65625 14.8125 63.9375 
Q 24.03125 74.21875 39.40625 74.21875 
z
" id="DejaVuSans-4f"/>
     <path d="M 48.6875 27.296875 
Q 48.6875 37.203125 44.609375 42.84375 
Q 40.53125 48.484375 33.40625 48.484375 
Q 26.265625 48.484375 22.1875 42.84375 
Q 18.109375 37.203125 18.109375 27.296875 
Q 18.109375 17.390625 22.1875 11.75 
Q 26.265625 6.109375 33.40625 6.109375 
Q 40.53125 6.109375 44.609375 11.75 
Q 48.6875 17.390625 48.6875 27.296875 
z
M 18.109375 46.390625 
Q 20.953125 51.265625 25.265625 53.625 
Q 29.59375 56 35.59375 56 
Q 45.5625 56 51.78125 48.09375 
Q 58.015625 40.1875 58.015625 27.296875 
Q 58.015625 14.40625 51.78125 6.484375 
Q 45.5625 -1.421875 35.59375 -1.421875 
Q 29.59375 -1.421875 25.265625 0.953125 
Q 20.953125 3.328125 18.109375 8.203125 
L 18.109375 0 
L 9.078125 0 
L 9.078125 75.984375 
L 18.109375 75.984375 
z
" id="DejaVuSans-62"/>
     <path d="M 9.421875 54.6875 
L 18.40625 54.6875 
L 18.40625 -0.984375 
Q 18.40625 -11.421875 14.421875 -16.109375 
Q 10.453125 -20.796875 1.609375 -20.796875 
L -1.8125 -20.796875 
L -1.8125 -13.1875 
L 0.59375 -13.1875 
Q 5.71875 -13.1875 7.5625 -10.8125 
Q 9.421875 -8.453125 9.421875 -0.984375 
z
M 9.421875 75.984375 
L 18.40625 75.984375 
L 18.40625 64.59375 
L 9.421875 64.59375 
z
" id="DejaVuSans-6a"/>
     <path d="M 48.78125 52.59375 
L 48.78125 44.1875 
Q 44.96875 46.296875 41.140625 47.34375 
Q 37.3125 48.390625 33.40625 48.390625 
Q 24.65625 48.390625 19.8125 42.84375 
Q 14.984375 37.3125 14.984375 27.296875 
Q 14.984375 17.28125 19.8125 11.734375 
Q 24.65625 6.203125 33.40625 6.203125 
Q 37.3125 6.203125 41.140625 7.25 
Q 44.96875 8.296875 48.78125 10.40625 
L 48.78125 2.09375 
Q 45.015625 0.34375 40.984375 -0.53125 
Q 36.96875 -1.421875 32.421875 -1.421875 
Q 20.0625 -1.421875 12.78125 6.34375 
Q 5.515625 14.109375 5.515625 27.296875 
Q 5.515625 40.671875 12.859375 48.328125 
Q 20.21875 56 33.015625 56 
Q 37.15625 56 41.109375 55.140625 
Q 45.0625 54.296875 48.78125 52.59375 
z
" id="DejaVuSans-63"/>
     <path d="M 4.203125 54.6875 
L 13.1875 54.6875 
L 24.421875 12.015625 
L 35.59375 54.6875 
L 46.1875 54.6875 
L 57.421875 12.015625 
L 68.609375 54.6875 
L 77.59375 54.6875 
L 63.28125 0 
L 52.6875 0 
L 40.921875 44.828125 
L 29.109375 0 
L 18.5 0 
z
" id="DejaVuSans-77"/>
     <path d="M 19.671875 64.796875 
L 19.671875 37.40625 
L 32.078125 37.40625 
Q 38.96875 37.40625 42.71875 40.96875 
Q 46.484375 44.53125 46.484375 51.125 
Q 46.484375 57.671875 42.71875 61.234375 
Q 38.96875 64.796875 32.078125 64.796875 
z
M 9.8125 72.90625 
L 32.078125 72.90625 
Q 44.34375 72.90625 50.609375 67.359375 
Q 56.890625 61.8125 56.890625 51.125 
Q 56.890625 40.328125 50.609375 34.8125 
Q 44.34375 29.296875 32.078125 29.296875 
L 19.671875 29.296875 
L 19.671875 0 
L 9.8125 0 
z
" id="DejaVuSans-50"/>
     <path d="M 9.421875 75.984375 
L 18.40625 75.984375 
L 18.40625 0 
L 9.421875 0 
z
" id="DejaVuSans-6c"/>
    </defs>
    <g transform="translate(182.840625 35.472)scale(0.12 -0.12)">
     <use xlink:href="#DejaVuSans-4f"/>
     <use x="78.710938" xlink:href="#DejaVuSans-62"/>
     <use x="142.1875" xlink:href="#DejaVuSans-6a"/>
     <use x="169.970703" xlink:href="#DejaVuSans-65"/>
     <use x="231.494141" xlink:href="#DejaVuSans-63"/>
     <use x="286.474609" xlink:href="#DejaVuSans-74"/>
     <use x="325.683594" xlink:href="#DejaVuSans-20"/>
     <use x="357.470703" xlink:href="#DejaVuSans-77"/>
     <use x="439.257812" xlink:href="#DejaVuSans-61"/>
     <use x="500.537109" xlink:href="#DejaVuSans-73"/>
     <use x="552.636719" xlink:href="#DejaVuSans-20"/>
     <use x="584.423828" xlink:href="#DejaVuSans-50"/>
     <use x="644.710938" xlink:href="#DejaVuSans-75"/>
     <use x="708.089844" xlink:href="#DejaVuSans-6c"/>
     <use x="735.873047" xlink:href="#DejaVuSans-6c"/>
     <use x="763.65625" xlink:href="#DejaVuSans-65"/>
     <use x="825.179688" xlink:href="#DejaVuSans-64"/>
    </g>
   </g>
   <g id="legend_1">
    <g id="patch_7">
     <path d="M 299.249687 302.584 
L 407.72 302.584 
Q 409.72 302.584 409.72 300.584 
L 409.72 272.22775 
Q 409.72 270.22775 407.72 270.22775 
L 299.249687 270.22775 
Q 297.249687 270.22775 297.249687 272.22775 
L 297.249687 300.584 
Q 297.249687 302.584 299.249687 302.584 
z
" style="fill:#ffffff;opacity:0.8;stroke:#cccccc;stroke-linejoin:miter;"/>
    </g>
    <g id="line2d_19">
     <path d="M 301.249687 278.326187 
L 321.249687 278.326187 
" style="fill:none;stroke:#1f77b4;stroke-linecap:square;stroke-width:1.5;"/>
    </g>
    <g id="line2d_20"/>
    <g id="text_20">
     <!-- Unfiltered Data -->
     <defs>
      <path d="M 8.6875 72.90625 
L 18.609375 72.90625 
L 18.609375 28.609375 
Q 18.609375 16.890625 22.84375 11.734375 
Q 27.09375 6.59375 36.625 6.59375 
Q 46.09375 6.59375 50.34375 11.734375 
Q 54.59375 16.890625 54.59375 28.609375 
L 54.59375 72.90625 
L 64.5 72.90625 
L 64.5 27.390625 
Q 64.5 13.140625 57.4375 5.859375 
Q 50.390625 -1.421875 36.625 -1.421875 
Q 22.796875 -1.421875 15.734375 5.859375 
Q 8.6875 13.140625 8.6875 27.390625 
z
" id="DejaVuSans-55"/>
      <path d="M 37.109375 75.984375 
L 37.109375 68.5 
L 28.515625 68.5 
Q 23.6875 68.5 21.796875 66.546875 
Q 19.921875 64.59375 19.921875 59.515625 
L 19.921875 54.6875 
L 34.71875 54.6875 
L 34.71875 47.703125 
L 19.921875 47.703125 
L 19.921875 0 
L 10.890625 0 
L 10.890625 47.703125 
L 2.296875 47.703125 
L 2.296875 54.6875 
L 10.890625 54.6875 
L 10.890625 58.5 
Q 10.890625 67.625 15.140625 71.796875 
Q 19.390625 75.984375 28.609375 75.984375 
z
" id="DejaVuSans-66"/>
      <path d="M 41.109375 46.296875 
Q 39.59375 47.171875 37.8125 47.578125 
Q 36.03125 48 33.890625 48 
Q 26.265625 48 22.1875 43.046875 
Q 18.109375 38.09375 18.109375 28.8125 
L 18.109375 0 
L 9.078125 0 
L 9.078125 54.6875 
L 18.109375 54.6875 
L 18.109375 46.1875 
Q 20.953125 51.171875 25.484375 53.578125 
Q 30.03125 56 36.53125 56 
Q 37.453125 56 38.578125 55.875 
Q 39.703125 55.765625 41.0625 55.515625 
z
" id="DejaVuSans-72"/>
      <path d="M 19.671875 64.796875 
L 19.671875 8.109375 
L 31.59375 8.109375 
Q 46.6875 8.109375 53.6875 14.9375 
Q 60.6875 21.78125 60.6875 36.53125 
Q 60.6875 51.171875 53.6875 57.984375 
Q 46.6875 64.796875 31.59375 64.796875 
z
M 9.8125 72.90625 
L 30.078125 72.90625 
Q 51.265625 72.90625 61.171875 64.09375 
Q 71.09375 55.28125 71.09375 36.53125 
Q 71.09375 17.671875 61.125 8.828125 
Q 51.171875 0 30.078125 0 
L 9.8125 0 
z
" id="DejaVuSans-44"/>
     </defs>
     <g transform="translate(329.249687 281.826187)scale(0.1 -0.1)">
      <use xlink:href="#DejaVuSans-55"/>
      <use x="73.193359" xlink:href="#DejaVuSans-6e"/>
      <use x="136.572266" xlink:href="#DejaVuSans-66"/>
      <use x="171.777344" xlink:href="#DejaVuSans-69"/>
      <use x="199.560547" xlink:href="#DejaVuSans-6c"/>
      <use x="227.34375" xlink:href="#DejaVuSans-74"/>
      <use x="266.552734" xlink:href="#DejaVuSans-65"/>
      <use x="328.076172" xlink:href="#DejaVuSans-72"/>
      <use x="369.158203" xlink:href="#DejaVuSans-65"/>
      <use x="430.681641" xlink:href="#DejaVuSans-64"/>
      <use x="494.158203" xlink:href="#DejaVuSans-20"/>
      <use x="525.945312" xlink:href="#DejaVuSans-44"/>
      <use x="602.947266" xlink:href="#DejaVuSans-61"/>
      <use x="664.226562" xlink:href="#DejaVuSans-74"/>
      <use x="703.435547" xlink:href="#DejaVuSans-61"/>
     </g>
    </g>
    <g id="line2d_21">
     <path d="M 301.249687 293.004312 
L 321.249687 293.004312 
" style="fill:none;stroke:#ff7f0e;stroke-linecap:square;stroke-width:1.5;"/>
    </g>
    <g id="line2d_22"/>
    <g id="text_21">
     <!-- Filtered Data -->
     <defs>
      <path d="M 9.8125 72.90625 
L 51.703125 72.90625 
L 51.703125 64.59375 
L 19.671875 64.59375 
L 19.671875 43.109375 
L 48.578125 43.109375 
L 48.578125 34.8125 
L 19.671875 34.8125 
L 19.671875 0 
L 9.8125 0 
z
" id="DejaVuSans-46"/>
     </defs>
     <g transform="translate(329.249687 296.504312)scale(0.1 -0.1)">
      <use xlink:href="#DejaVuSans-46"/>
      <use x="57.410156" xlink:href="#DejaVuSans-69"/>
      <use x="85.193359" xlink:href="#DejaVuSans-6c"/>
      <use x="112.976562" xlink:href="#DejaVuSans-74"/>
      <use x="152.185547" xlink:href="#DejaVuSans-65"/>
      <use x="213.708984" xlink:href="#DejaVuSans-72"/>
      <use x="254.791016" xlink:href="#DejaVuSans-65"/>
      <use x="316.314453" xlink:href="#DejaVuSans-64"/>
      <use x="379.791016" xlink:href="#DejaVuSans-20"/>
      <use x="411.578125" xlink:href="#DejaVuSans-44"/>
      <use x="488.580078" xlink:href="#DejaVuSans-61"/>
      <use x="549.859375" xlink:href="#DejaVuSans-74"/>
      <use x="589.068359" xlink:href="#DejaVuSans-61"/>
     </g>
    </g>
   </g>
  </g>
 </g>
 <defs>
  <clipPath id="p34c02ea42c">
   <rect height="266.112" width="357.12" x="57.6" y="41.472"/>
  </clipPath>
 </defs>
</svg>
